<svg xmlns="http://www.w3.org/2000/svg" width="512" height="512" fill="none" viewBox="0 0 512 512">
    <g clip-path="url(#a)">
        <path fill="#FC0" d="M259 389h253v123H259z" />
        <path fill="url(#b)" d="M0 0h512v389H0z" />
        <path fill="#F082CA" d="M0 188h132v324H0z" />
        <g clip-path="url(#c)">
            <circle cx="518.5" cy="-7.5" r="161.5" stroke="#fff" stroke-width="86" />
            <path fill="#D2D1D6" fill-rule="evenodd"
                d="M518.5 121.325c71.148 0 128.825-57.677 128.825-128.825S589.648-136.325 518.5-136.325 389.675-78.648 389.675-7.5 447.352 121.325 518.5 121.325Zm0 65.675C625.919 187 713 99.92 713-7.5 713-114.919 625.919-202 518.5-202S324-114.919 324-7.5C324 99.92 411.081 187 518.5 187Z"
                clip-rule="evenodd" />
        </g>
        <path fill="#F2F1F6"
            d="M271.801-7h-157v117.707c0 6.286-6.917 10.116-12.245 6.781L2.265 54.708-67 157.76l546.852 362.657 69.264-106.052-277.315-185.96V-7Z" />
        <path fill="url(#d)" d="M140-15h108v271H140V-15Z" />
        <path fill="#EEF0F6" d="M118 256h153v256H118V256Z" />
        <g filter="url(#e)">
            <circle cx="193" cy="317" r="119" fill="url(#f)" stroke="#fff" stroke-width="20" />
            <path fill="#fff"
                d="M205.22 246.173c-4.146-10.897-20.293-10.897-24.439 0l-45.837 125.201c-2.918 7.973 6.955 14.403 13.066 8.51l42.214-40.707a4 4 0 0 1 5.553 0l42.213 40.706c6.111 5.893 15.984-.536 13.066-8.509L205.22 246.173Z" />
        </g>
    </g>
    <defs>
        <linearGradient id="b" x1="256" x2="256" y1="0" y2="389" gradientUnits="userSpaceOnUse">
            <stop stop-color="#7FED7D" />
            <stop offset="1" stop-color="#2ED058" />
        </linearGradient>
        <linearGradient id="d" x1="194" x2="194" y1="-15" y2="256" gradientUnits="userSpaceOnUse">
            <stop stop-color="#0C91FF" />
            <stop offset="1" stop-color="#0077F7" />
        </linearGradient>
        <linearGradient id="f" x1="193" x2="193" y1="188" y2="446" gradientUnits="userSpaceOnUse">
            <stop stop-color="#0C91FF" />
            <stop offset="1" stop-color="#017AFF" />
        </linearGradient>
        <clipPath id="a">
            <rect width="512" height="512" fill="#fff" rx="112" />
        </clipPath>
        <clipPath id="c">
            <path fill="#fff" d="M314 0h198v205H314z" />
        </clipPath>
        <filter id="e" width="378" height="378" x="4" y="143" color-interpolation-filters="sRGB"
            filterUnits="userSpaceOnUse">
            <feFlood flood-opacity="0" result="BackgroundImageFix" />
            <feColorMatrix in="SourceAlpha" result="hardAlpha" values="0 0 0 0 0 0 0 0 0 0 0 0 0 0 0 0 0 0 127 0" />
            <feOffset dy="15" />
            <feGaussianBlur stdDeviation="30" />
            <feComposite in2="hardAlpha" operator="out" />
            <feColorMatrix values="0 0 0 0 0 0 0 0 0 0 0 0 0 0 0 0 0 0 0.25 0" />
            <feBlend in2="BackgroundImageFix" result="effect1_dropShadow_703_2" />
            <feBlend in="SourceGraphic" in2="effect1_dropShadow_703_2" result="shape" />
        </filter>
    </defs>
</svg>