<svg width="24" height="24" viewBox="0 0 24 24" fill="none" xmlns="http://www.w3.org/2000/svg">
<g clip-path="url(#clip0_163_1070)">
<mask id="mask0_163_1070" style="mask-type:luminance" maskUnits="userSpaceOnUse" x="0" y="0" width="24" height="24">
<path d="M24 0H0V24H24V0Z" fill="white"/>
</mask>
<g mask="url(#mask0_163_1070)">
<path d="M12 5.52393L11.451 6.03493C11.5212 6.11066 11.6063 6.17107 11.7009 6.21238C11.7956 6.2537 11.8977 6.27502 12.001 6.27502C12.1042 6.27502 12.2064 6.2537 12.301 6.21238C12.3957 6.17107 12.4808 6.11066 12.551 6.03493L12 5.52393ZM12.551 6.03493L13.315 5.21293L12.216 4.19093L11.45 5.01293L12.551 6.03493ZM10.686 5.21293L11.451 6.03493L12.551 5.01293L11.786 4.19093L10.686 5.21293ZM3.03597 13.4319L9.92097 20.8319L11.021 19.8099L4.13597 12.4099L3.03597 13.4319ZM14.08 20.8319L20.965 13.4319L19.866 12.4099L12.98 19.8099L14.08 20.8319ZM19.867 5.21293C20.7583 6.20013 21.2517 7.48288 21.2517 8.81293C21.2517 10.143 20.7583 11.4257 19.867 12.4129L20.967 13.4349C22.1157 12.1702 22.7522 10.523 22.7522 8.81443C22.7522 7.10589 22.1157 5.45862 20.967 4.19393L19.867 5.21293ZM20.967 4.19093C20.4139 3.57993 19.7389 3.09159 18.9855 2.75737C18.2322 2.42316 17.4171 2.25049 16.593 2.25049C15.7688 2.25049 14.9538 2.42316 14.2004 2.75737C13.4471 3.09159 12.7721 3.57993 12.219 4.19093L13.319 5.21293C13.7316 4.75268 14.2367 4.38454 14.8011 4.13252C15.3656 3.8805 15.9768 3.75024 16.595 3.75024C17.2131 3.75024 17.8244 3.8805 18.3888 4.13252C18.9533 4.38454 19.4583 4.75268 19.871 5.21293L20.967 4.19093ZM4.13297 5.21293C4.54564 4.75268 5.05066 4.38454 5.61512 4.13252C6.17958 3.8805 6.79081 3.75024 7.40897 3.75024C8.02714 3.75024 8.63837 3.8805 9.20283 4.13252C9.76728 4.38454 10.2733 4.75268 10.686 5.21293L11.784 4.19093C11.2309 3.57993 10.5569 3.09159 9.80352 2.75737C9.05016 2.42316 8.23514 2.25049 7.41097 2.25049C6.58681 2.25049 5.77178 2.42316 5.01842 2.75737C4.26506 3.09159 3.59008 3.57993 3.03697 4.19093L4.13297 5.21293ZM9.92097 20.8299C10.1843 21.1196 10.5053 21.351 10.8633 21.5093C11.2214 21.6677 11.6085 21.7495 12 21.7495C12.3914 21.7495 12.7786 21.6677 13.1366 21.5093C13.4946 21.351 13.8156 21.1196 14.079 20.8299L12.979 19.8079C12.8561 19.9468 12.705 20.058 12.5359 20.1342C12.3668 20.2104 12.1834 20.2497 11.998 20.2497C11.8125 20.2497 11.6291 20.2104 11.46 20.1342C11.2909 20.058 11.1399 19.9468 11.017 19.8079L9.92097 20.8299ZM3.03497 4.19093C1.88621 5.45562 1.24976 7.10289 1.24976 8.81143C1.24976 10.52 1.88621 12.1672 3.03497 13.4319L4.13597 12.4099C3.24466 11.4227 2.75025 10.14 2.75025 8.80993C2.75025 7.47988 3.24366 6.19713 4.13497 5.20993L3.03497 4.19093Z" fill="#C6C8CD"/>
</g>
</g>
<defs>
<clipPath id="clip0_163_1070">
<rect width="24" height="24" fill="white"/>
</clipPath>
</defs>
</svg>
