<svg width="24" height="24" viewBox="0 0 24 24" fill="none" xmlns="http://www.w3.org/2000/svg">
<g clip-path="url(#clip0_163_1115)">
<mask id="mask0_163_1115" style="mask-type:luminance" maskUnits="userSpaceOnUse" x="0" y="0" width="24" height="24">
<path d="M24 0H0V24H24V0Z" fill="white"/>
</mask>
<g mask="url(#mask0_163_1115)">
<mask id="mask1_163_1115" style="mask-type:luminance" maskUnits="userSpaceOnUse" x="0" y="0" width="24" height="24">
<path d="M24 0H0V24H24V0Z" fill="white"/>
</mask>
<g mask="url(#mask1_163_1115)">
<path d="M9.91998 20.83L3.03497 13.43C1.88621 12.1653 1.24976 10.5181 1.24976 8.80954C1.24976 7.101 1.88621 5.45373 3.03497 4.18904C3.58809 3.57787 4.26315 3.08939 5.0166 2.75508C5.77006 2.42077 6.58519 2.24805 7.40948 2.24805C8.23378 2.24805 9.04891 2.42077 9.80237 2.75508C10.5558 3.08939 11.2309 3.57787 11.784 4.18904L12 4.42104L12.216 4.18904C12.7691 3.57804 13.4441 3.0897 14.1974 2.75548C14.9508 2.42127 15.7659 2.2486 16.59 2.2486C17.4142 2.2486 18.2292 2.42127 18.9825 2.75548C19.7359 3.0897 20.4109 3.57804 20.964 4.18904C22.1128 5.45373 22.7492 7.101 22.7492 8.80954C22.7492 10.5181 22.1128 12.1653 20.964 13.43L14.079 20.83C13.8147 21.1185 13.4935 21.349 13.1357 21.5072C12.7779 21.6654 12.3912 21.7477 12 21.749C11.6086 21.7479 11.2217 21.6656 10.8637 21.5075C10.5057 21.3493 10.1844 21.1186 9.91998 20.83Z" fill="#333333"/>
</g>
</g>
</g>
<defs>
<clipPath id="clip0_163_1115">
<rect width="24" height="24" fill="white"/>
</clipPath>
</defs>
</svg>
