<svg width="24" height="24" viewBox="0 0 24 24" fill="none" xmlns="http://www.w3.org/2000/svg">
<g clip-path="url(#clip0_163_1050)">
<mask id="mask0_163_1050" style="mask-type:luminance" maskUnits="userSpaceOnUse" x="0" y="0" width="24" height="24">
<path d="M24 0H0V24H24V0Z" fill="white"/>
</mask>
<g mask="url(#mask0_163_1050)">
<path d="M20.25 10.1501V17.9661H21.75V10.1501H20.25ZM17 21.2501H7.00003V22.7501H17V21.2501ZM3.75003 17.9671V10.1501H2.25003V17.9661L3.75003 17.9671ZM4.95003 7.60609L9.95003 3.48909L8.99303 2.33009L3.99303 6.44709L4.95003 7.60609ZM14.05 3.48809L19.05 7.60509L20.007 6.45009L15.007 2.33309L14.05 3.48809ZM9.94303 3.48809C10.5209 3.01086 11.247 2.74981 11.9965 2.74981C12.746 2.74981 13.4721 3.01086 14.05 3.48809L15.003 2.33009C14.1566 1.63172 13.0934 1.24976 11.996 1.24976C10.8987 1.24976 9.8355 1.63172 8.98903 2.33009L9.94303 3.48809ZM7.00003 21.2501C6.13374 21.2456 5.3047 20.8972 4.69523 20.2816C4.08576 19.6659 3.74577 18.8334 3.75003 17.9671L2.25003 17.9661C2.24578 19.2302 2.7438 20.4453 3.63457 21.3422C4.52534 22.2392 5.73591 22.7456 7.00003 22.7501V21.2501ZM20.25 17.9661C20.2543 18.8324 19.9143 19.6659 19.3048 20.2816C18.6954 20.8972 17.8663 21.2456 17 21.2501V22.7501C18.2641 22.7456 19.4747 22.2392 20.3655 21.3422C21.2563 20.4453 21.7543 19.2302 21.75 17.9661H20.25ZM21.75 10.1501C21.7499 9.44306 21.5936 8.74477 21.2923 8.10516C20.991 7.46554 20.5521 6.90038 20.007 6.45009L19.05 7.60509C19.4253 7.91464 19.7274 8.30331 19.9349 8.74329C20.1423 9.18326 20.2499 9.66366 20.25 10.1501H21.75ZM3.75003 10.1501C3.75011 9.66366 3.85774 9.18326 4.06519 8.74329C4.27264 8.30331 4.5748 7.91564 4.95003 7.60609L3.99303 6.45009C3.44793 6.90038 3.00903 7.46554 2.70772 8.10516C2.40641 8.74477 2.25012 9.44306 2.25003 10.1501H3.75003Z" fill="#CCCCCC"/>
<path d="M10 17.25C9.80109 17.25 9.61032 17.329 9.46967 17.4697C9.32902 17.6103 9.25 17.8011 9.25 18C9.25 18.1989 9.32902 18.3897 9.46967 18.5303C9.61032 18.671 9.80109 18.75 10 18.75V17.25ZM14 18.75C14.1989 18.75 14.3897 18.671 14.5303 18.5303C14.671 18.3897 14.75 18.1989 14.75 18C14.75 17.8011 14.671 17.6103 14.5303 17.4697C14.3897 17.329 14.1989 17.25 14 17.25V18.75ZM10 18.75H14V17.25H10V18.75Z" fill="#CCCCCC"/>
</g>
</g>
<defs>
<clipPath id="clip0_163_1050">
<rect width="24" height="24" fill="white"/>
</clipPath>
</defs>
</svg>
