<svg width="24" height="24" viewBox="0 0 24 24" fill="none" xmlns="http://www.w3.org/2000/svg">
<g clip-path="url(#clip0_163_1064)">
<mask id="mask0_163_1064" style="mask-type:luminance" maskUnits="userSpaceOnUse" x="0" y="0" width="24" height="24">
<path d="M24 0H0V24H24V0Z" fill="white"/>
</mask>
<g mask="url(#mask0_163_1064)">
<path d="M20.25 10.8891C20.25 13.0891 18.965 15.7031 17.193 17.8021C16.3916 18.7703 15.4578 19.6207 14.419 20.3281C13.7138 20.8538 12.8762 21.173 12 21.2501V22.7501C13.1697 22.6759 14.2941 22.2705 15.242 21.5811C16.4028 20.7947 17.4465 19.848 18.342 18.7691C20.226 16.5391 21.753 13.5941 21.753 10.8881L20.25 10.8891ZM12 21.2501C11.124 21.1726 10.2868 20.853 9.582 20.3271C8.54324 19.6197 7.60939 18.7693 6.808 17.8011C5.035 15.7031 3.75 13.0931 3.75 10.8891H2.25C2.25 13.5941 3.778 16.5391 5.661 18.7701C6.55654 19.849 7.60022 20.7957 8.761 21.5821C9.70814 22.2706 10.8315 22.6757 12 22.7501V21.2501ZM3.75 10.8891C3.76612 8.71625 4.64403 6.63862 6.1909 5.11256C7.73777 3.58651 9.82711 2.73682 12 2.75013V1.25013C9.42928 1.23683 6.95842 2.24455 5.13025 4.05191C3.30208 5.85927 2.26613 8.31843 2.25 10.8891H3.75ZM12 2.75013C14.1729 2.73682 16.2622 3.58651 17.8091 5.11256C19.356 6.63862 20.2339 8.71625 20.25 10.8891H21.75C21.7339 8.31843 20.6979 5.85927 18.8697 4.05191C17.0416 2.24455 14.5707 1.23683 12 1.25013V2.75013ZM14.25 11.0001C14.25 11.5969 14.0129 12.1692 13.591 12.5911C13.169 13.0131 12.5967 13.2501 12 13.2501V14.7501C12.9946 14.7501 13.9484 14.355 14.6517 13.6518C15.3549 12.9485 15.75 11.9947 15.75 11.0001H14.25ZM12 13.2501C11.4033 13.2501 10.831 13.0131 10.409 12.5911C9.98705 12.1692 9.75 11.5969 9.75 11.0001H8.25C8.25 11.9947 8.64509 12.9485 9.34835 13.6518C10.0516 14.355 11.0054 14.7501 12 14.7501V13.2501ZM9.75 11.0001C9.75 10.4034 9.98705 9.8311 10.409 9.40914C10.831 8.98718 11.4033 8.75013 12 8.75013V7.25013C11.0054 7.25013 10.0516 7.64522 9.34835 8.34848C8.64509 9.05174 8.25 10.0056 8.25 11.0001H9.75ZM12 8.75013C12.5967 8.75013 13.169 8.98718 13.591 9.40914C14.0129 9.8311 14.25 10.4034 14.25 11.0001H15.75C15.75 10.0056 15.3549 9.05174 14.6517 8.34848C13.9484 7.64522 12.9946 7.25013 12 7.25013V8.75013Z" fill="#C6C8CD"/>
</g>
</g>
<defs>
<clipPath id="clip0_163_1064">
<rect width="24" height="24" fill="white"/>
</clipPath>
</defs>
</svg>
