<?xml version="1.0" encoding="UTF-8"?>
<svg xmlns="http://www.w3.org/2000/svg" width="24" height="24" viewBox="0 0 24 24" fill="none">
    <g clip-path="url(#clip0_163_1058)">
        <mask id="mask0_163_1058" style="mask-type:luminance" maskUnits="userSpaceOnUse" x="0" y="0" width="24"
            height="24">
            <path d="M24 0H0V24H24V0Z" fill="white"></path>
        </mask>
        <g mask="url(#mask0_163_1058)">
            <path
                d="M5.26895 12.874L8.96895 14.108L9.44895 12.685L5.74295 11.449L5.26895 12.874ZM9.89095 15.028L11.1249 18.728L12.5489 18.256L11.3139 14.549L9.89095 15.028ZM16.7309 18.728L20.5939 7.14297L19.1709 6.66897L15.3079 18.256L16.7309 18.728ZM16.8569 3.40597L5.26895 7.26797L5.74295 8.69097L17.3309 4.82897L16.8569 3.40597ZM20.5939 7.14297C20.7676 6.62245 20.7928 6.06386 20.6668 5.52981C20.5408 4.99576 20.2686 4.50736 19.8806 4.11936C19.4926 3.73136 19.0042 3.45909 18.4701 3.33309C17.9361 3.20709 17.3775 3.23232 16.8569 3.40597L17.3309 4.82897C17.5872 4.74328 17.8624 4.73072 18.1254 4.79269C18.3884 4.85466 18.629 4.98872 18.8201 5.17981C19.0112 5.3709 19.1453 5.61147 19.2072 5.87451C19.2692 6.13756 19.2566 6.41267 19.1709 6.66897L20.5939 7.14297ZM11.1259 18.73C11.3217 19.3186 11.6978 19.8306 12.201 20.1935C12.7041 20.5563 13.3086 20.7516 13.9289 20.7516C14.5493 20.7516 15.1538 20.5563 15.6569 20.1935C16.16 19.8306 16.5362 19.3186 16.7319 18.73L15.3089 18.256C15.2127 18.5459 15.0276 18.7982 14.7799 18.977C14.5322 19.1558 14.2345 19.252 13.9289 19.252C13.6234 19.252 13.3257 19.1558 13.078 18.977C12.8303 18.7982 12.6452 18.5459 12.5489 18.256L11.1259 18.73ZM8.97195 14.108C9.18621 14.1793 9.3809 14.2996 9.54059 14.4593C9.70028 14.619 9.81958 14.8137 9.89095 15.028L11.3139 14.549C11.1687 14.115 10.9246 13.7208 10.601 13.3973C10.2773 13.0739 9.88295 12.83 9.44895 12.685L8.97195 14.108ZM5.74295 11.449C5.45336 11.3525 5.20146 11.1674 5.02296 10.9198C4.84446 10.6722 4.7484 10.3747 4.7484 10.0695C4.7484 9.76424 4.84446 9.46675 5.02296 9.21915C5.20146 8.97156 5.45336 8.78742 5.74295 8.69097L5.26895 7.26797C4.68034 7.46375 4.16831 7.83987 3.80545 8.34298C3.44259 8.84608 3.24731 9.45066 3.24731 10.071C3.24731 10.6913 3.44259 11.2958 3.80545 11.799C4.16831 12.3021 4.68034 12.6782 5.26895 12.874L5.74295 11.449Z"
                fill="#C6C8CD"></path>
        </g>
    </g>
    <defs>
        <clipPath id="clip0_163_1058">
            <rect width="24" height="24" fill="white"></rect>
        </clipPath>
    </defs>
</svg>