<svg width="24" height="24" viewBox="0 0 24 24" fill="none" xmlns="http://www.w3.org/2000/svg">
<g clip-path="url(#clip0_163_1093)">
<mask id="mask0_163_1093" style="mask-type:luminance" maskUnits="userSpaceOnUse" x="0" y="0" width="24" height="24">
<path d="M24 0H0V24H24V0Z" fill="white"/>
</mask>
<g mask="url(#mask0_163_1093)">
<mask id="mask1_163_1093" style="mask-type:luminance" maskUnits="userSpaceOnUse" x="0" y="0" width="24" height="24">
<path d="M24 0H0V24H24V0Z" fill="white"/>
</mask>
<g mask="url(#mask1_163_1093)">
<path d="M11.1271 18.73L9.89307 15.03C9.82149 14.8158 9.7011 14.6212 9.54144 14.4616C9.38178 14.3019 9.18723 14.1815 8.97308 14.11L5.27307 12.876C4.68483 12.6799 4.17318 12.3038 3.81061 11.8008C3.44804 11.2978 3.25293 10.6935 3.25293 10.0735C3.25293 9.45343 3.44804 8.8491 3.81061 8.34612C4.17318 7.84313 4.68483 7.46698 5.27307 7.27097L16.858 3.40597C17.3785 3.23232 17.9371 3.20709 18.4712 3.33309C19.0052 3.45909 19.4937 3.73136 19.8817 4.11936C20.2697 4.50736 20.5419 4.99576 20.6679 5.52981C20.7939 6.06386 20.7687 6.62245 20.595 7.14297L16.7321 18.731C16.5435 19.3233 16.1695 19.8394 15.6654 20.2031C15.1613 20.5667 14.5536 20.7588 13.9321 20.751C13.3095 20.7598 12.7006 20.5681 12.1955 20.2042C11.6903 19.8402 11.3157 19.3233 11.1271 18.73Z" fill="#333333"/>
</g>
</g>
</g>
<defs>
<clipPath id="clip0_163_1093">
<rect width="24" height="24" fill="white"/>
</clipPath>
</defs>
</svg>
