<svg width="24" height="24" viewBox="0 0 24 24" fill="none" xmlns="http://www.w3.org/2000/svg">
<mask id="mask0_241_1662" style="mask-type:luminance" maskUnits="userSpaceOnUse" x="1" y="1" width="22" height="22">
<path d="M22.0799 1.91992H1.91992V22.0799H22.0799V1.91992Z" fill="white"/>
</mask>
<g mask="url(#mask0_241_1662)">
<path d="M17.9059 17.015C17.7878 16.8969 17.6275 16.8305 17.4605 16.8305C17.2934 16.8305 17.1332 16.8969 17.015 17.015C16.8969 17.1332 16.8305 17.2934 16.8305 17.4605C16.8305 17.6275 16.8969 17.7878 17.015 17.9059L17.9059 17.015ZM19.9545 20.8464C20.0727 20.9645 20.2329 21.0309 20.4 21.0309C20.567 21.0309 20.7273 20.9645 20.8454 20.8464C20.9636 20.7282 21.0299 20.568 21.0299 20.4009C21.0299 20.2339 20.9636 20.0736 20.8454 19.9555L19.9545 20.8464ZM20.1897 11.5805C20.1897 9.29704 19.2827 7.10714 17.6682 5.49244C16.0537 3.87773 13.8639 2.97047 11.5805 2.97021V4.23069C13.5297 4.23069 15.3992 5.00504 16.7775 6.38339C18.1559 7.76174 18.9302 9.63118 18.9302 11.5805H20.1897ZM11.5805 2.97021C9.29688 2.97021 7.10683 3.87736 5.4921 5.4921C3.87736 7.10683 2.97021 9.29688 2.97021 11.5805H4.23069C4.23069 9.63118 5.00504 7.76174 6.38339 6.38339C7.76174 5.00504 9.63118 4.23069 11.5805 4.23069V2.97021ZM2.97021 11.5805C2.97021 13.864 3.87736 16.0541 5.4921 17.6688C7.10683 19.2835 9.29688 20.1907 11.5805 20.1907V18.9302C9.63118 18.9302 7.76174 18.1559 6.38339 16.7775C5.00504 15.3992 4.23069 13.5297 4.23069 11.5805H2.97021ZM11.5805 20.1907C13.864 20.1907 16.0541 19.2835 17.6688 17.6688C19.2835 16.0541 20.1897 13.864 20.1897 11.5805H18.9302C18.9302 13.5297 18.1559 15.3992 16.7775 16.7775C15.3992 18.1559 13.5297 18.9302 11.5805 18.9302V20.1907ZM17.015 17.9059L19.9555 20.8464L20.8454 19.9555L17.9059 17.015L17.015 17.9059Z" fill="#333333"/>
</g>
</svg>
