<svg width="38" height="38" viewBox="0 0 38 38" fill="none" xmlns="http://www.w3.org/2000/svg">
    <path
        d="M33.349 32H25.5C24.3425 34.5151 21.11 36.5944 19 38H33.3564C33.7923 38 34.2103 37.7953 34.5186 37.4309C34.8268 37.0665 35 36.5722 35 36.0569V33.941C34.9927 33.427 34.8161 32.9368 34.5078 32.5743C34.1995 32.2119 33.7838 32.0058 33.349 32Z"
        fill="#BA66E0" />
    <path
        d="M36.4583 24.0001H27.7529V24.7369C27.7537 26.5345 27.4986 28.3175 27 30H36.4583C36.6608 30 36.8612 29.9494 37.0483 29.8511C37.2353 29.7528 37.4053 29.6087 37.5484 29.4271C37.6916 29.2454 37.8052 29.0298 37.8826 28.7924C37.9601 28.5551 38 28.3008 38 28.0439V25.9139C37.9955 25.4007 37.8305 24.9109 37.5414 24.552C37.2523 24.1931 36.8627 23.9946 36.4583 24.0001Z"
        fill="#BA66E0" />
    <path
        d="M33.746 22C34.0786 22 34.3976 21.7953 34.6328 21.4311C34.868 21.0668 35.0001 20.5727 35.0001 20.0576V17.9424C35.0001 17.4273 34.868 16.9332 34.6328 16.5689C34.3976 16.2046 34.0786 16 33.746 16H25C25 16 27 18.5 27.6145 21.9978L33.746 22Z"
        fill="#BA66E0" />
    <path
        d="M36.3392 8.00003H19.6672C19.4483 8.00003 19.2315 8.05024 19.0292 8.14781C18.8269 8.24537 18.6431 8.38837 18.4883 8.56864C18.3335 8.74892 18.2107 8.96294 18.1269 9.19848C18.0431 9.43402 18 9.68647 18 9.94142V10.5C20.5 11.5 21.778 12.2621 23.2239 14H36.3327C36.7749 14 37.1989 13.7955 37.5116 13.4314C37.8243 13.0673 37.9999 12.5735 37.9999 12.0586V9.94465C38.0022 9.68943 37.961 9.43622 37.8784 9.19977C37.7959 8.96331 37.6738 8.74833 37.5193 8.56735C37.3647 8.38638 37.1808 8.24301 36.9782 8.14561C36.7756 8.04821 36.5584 7.99872 36.3392 8.00003Z"
        fill="#BA66E0" />
    <path
        d="M12.0833 6H32.9167C33.4692 6 33.9991 5.79535 34.3898 5.43107C34.7805 5.06679 35 4.57272 35 4.05755V1.94245C35 1.42728 34.7805 0.933209 34.3898 0.568929C33.9991 0.20465 33.4692 0 32.9167 0H12.0833C11.5308 0 11.0009 0.20465 10.6102 0.568929C10.2195 0.933209 10 1.42728 10 1.94245V4.05755C10.0143 4.56851 10.2384 5.05484 10.6261 5.41627C11.0137 5.77769 11.5353 5.98663 12.0833 6Z"
        fill="#BA66E0" />
    <path
        d="M27 24.5C27 21.83 26.2082 19.2199 24.7248 16.9998C23.2414 14.7797 21.133 13.0494 18.6662 12.0276C16.1994 11.0058 13.485 10.7385 10.8663 11.2594C8.24754 11.7803 5.84207 13.0661 3.95406 14.9541C2.06606 16.8421 0.780305 19.2475 0.259405 21.8663C-0.261496 24.485 0.00584935 27.1994 1.02763 29.6662C2.04941 32.133 3.77974 34.2414 5.99981 35.7248C8.21987 37.2082 10.83 38 13.5 38C15.2731 38.0009 17.029 37.6523 18.6673 36.9742C20.3056 36.296 21.7941 35.3017 23.0479 34.0479C24.3017 32.7941 25.296 31.3056 25.9742 29.6673C26.6523 28.029 27.0009 26.2731 27 24.5ZM21.9786 16.0214C23.0951 17.1166 23.9711 18.4324 24.5509 19.8849L22.1928 20.8608C21.7188 19.7166 21.0248 18.6767 20.1501 17.8L21.9786 16.0214ZM8.92488 13.3991L9.90074 15.7572C8.7566 16.2312 7.71665 16.9253 6.83993 17.8L5.02032 16.0236C6.14134 14.9063 7.46699 14.0153 8.92488 13.3991ZM2.44022 19.8894L4.79828 20.8652C4.33097 22.0074 4.08931 23.2293 4.08664 24.4634H1.5132C1.52837 22.8936 1.843 21.3412 2.44022 19.8894ZM5.02032 32.9375C3.89401 31.8345 3.01691 30.5031 2.44799 29.0329L4.79717 28.0571C5.28636 29.193 5.9786 30.2303 6.83993 31.1179L5.02032 32.9375ZM13.4989 36.4446C11.9261 36.4511 10.369 36.1329 8.92488 35.5098L9.90074 33.1518C11.0429 33.6191 12.2648 33.8607 13.4989 33.8634V36.4446ZM13.4989 15.0445V12.5132C15.0721 12.5017 16.6303 12.8201 18.0729 13.448L17.097 15.7561C15.9549 15.2888 14.733 15.0471 13.4989 15.0445ZM18.0729 35.5587L17.097 33.2006C18.2412 32.7266 19.2811 32.0326 20.1579 31.1579L21.9775 32.9775C20.844 34.0683 19.5213 34.9434 18.074 35.5598L18.0729 35.5587ZM22.9123 24.4989H25.4435C25.45 26.0716 25.1318 27.6288 24.5087 29.0729L22.1507 28.097C22.673 26.9709 22.9338 25.7412 22.9134 24.5L22.9123 24.4989Z"
        fill="#BA66E0" />
</svg>