<?xml version="1.0" encoding="UTF-8"?>
<svg xmlns="http://www.w3.org/2000/svg" width="38" height="38" viewBox="0 0 38 38" fill="none">
    <mask id="mask0_13_289" style="mask-type:luminance" maskUnits="userSpaceOnUse" x="0" y="0" width="38" height="38">
        <path d="M38 0H0V38H38V0Z" fill="white"></path>
    </mask>
    <g mask="url(#mask0_13_289)">
        <path
            d="M3.44189 25.438C4.2685 27.4942 5.5057 29.3602 7.07789 30.922L9.64089 28.404C8.40517 27.1666 7.42519 25.698 6.75689 24.082L3.44189 25.438Z"
            fill="white"></path>
        <path
            d="M12.562 34.558C14.6002 35.4131 16.7897 35.8491 19 35.84V32.24C17.257 32.2411 15.5306 31.9013 13.918 31.24L12.562 34.558Z"
            fill="white"></path>
        <path
            d="M25.437 3.44203C23.3946 2.60089 21.2079 2.16545 18.999 2.16003V5.76003C20.742 5.759 22.4684 6.0987 24.081 6.76003L25.437 3.44203Z"
            fill="white"></path>
        <path
            d="M6.75785 13.9231L3.43485 12.5551C2.58303 14.5964 2.1498 16.7881 2.16085 19.0001H5.76085C5.75951 17.259 6.09819 15.5343 6.75785 13.9231Z"
            fill="white"></path>
        <path
            d="M13.918 6.75806L12.555 3.43506C10.4924 4.2903 8.61865 5.54388 7.04102 7.12406L9.60402 9.64206C10.8445 8.41381 12.3089 7.43481 13.918 6.75806Z"
            fill="white"></path>
        <path
            d="M24.082 31.242L25.446 34.565C27.5084 33.7339 29.3738 32.4799 30.922 30.884L28.359 28.371C27.1359 29.5998 25.6826 30.5754 24.082 31.242Z"
            fill="white"></path>
        <path
            d="M31.2791 24.082L34.6011 25.445C35.4387 23.4015 35.874 21.2155 35.8831 19.007H32.2831C32.2784 20.7475 31.9375 22.4708 31.2791 24.082Z"
            fill="white"></path>
        <path
            d="M28.3579 9.559C29.5936 10.7964 30.5736 12.265 31.2419 13.881L34.5649 12.517C33.7237 10.4799 32.4849 8.63085 30.9209 7.078L28.3579 9.559Z"
            fill="white"></path>
        <path
            d="M30.1171 19.0001C30.1171 16.8013 29.4651 14.652 28.2435 12.8238C27.022 10.9956 25.2857 9.57071 23.2544 8.72929C21.223 7.88787 18.9877 7.66772 16.8312 8.09667C14.6748 8.52562 12.6939 9.58441 11.1392 11.1392C9.58441 12.6939 8.52562 14.6748 8.09667 16.8312C7.66772 18.9877 7.88787 21.223 8.72929 23.2544C9.57071 25.2857 10.9956 27.022 12.8238 28.2435C14.652 29.4651 16.8013 30.1171 19.0001 30.1171C21.9461 30.1094 24.7693 28.9357 26.8525 26.8525C28.9357 24.7693 30.1094 21.9461 30.1171 19.0001ZM26.0411 17.2791L23.3591 20.1631C23.2946 20.2322 23.2471 20.3153 23.22 20.4058C23.1929 20.4964 23.1871 20.5919 23.2031 20.6851L23.6801 24.6041C23.6938 24.7142 23.6777 24.826 23.6336 24.9279C23.5895 25.0298 23.519 25.118 23.4293 25.1834C23.3396 25.2488 23.2341 25.289 23.1236 25.2998C23.0131 25.3107 22.9018 25.2918 22.8011 25.2451L19.2391 23.5691C19.158 23.5286 19.0687 23.5075 18.9781 23.5075C18.8875 23.5075 18.7981 23.5286 18.7171 23.5691L15.1541 25.2441C15.0532 25.2884 14.9425 25.3056 14.833 25.2937C14.7235 25.2819 14.619 25.2415 14.53 25.1766C14.4411 25.1117 14.3707 25.0245 14.3259 24.9239C14.2812 24.8232 14.2636 24.7126 14.2751 24.6031L14.7151 20.6841C14.7321 20.5909 14.7268 20.4951 14.6997 20.4043C14.6726 20.3136 14.6244 20.2306 14.5591 20.1621L11.8771 17.2781C11.7972 17.199 11.7406 17.0996 11.7132 16.9906C11.6858 16.8816 11.6888 16.7672 11.7217 16.6598C11.7547 16.5524 11.8164 16.456 11.9002 16.3812C11.984 16.3063 12.0866 16.2558 12.1971 16.2351L16.0791 15.4751C16.1724 15.4602 16.261 15.4234 16.3374 15.3678C16.4139 15.3122 16.4761 15.2393 16.5191 15.1551L18.4411 11.7131C18.492 11.6138 18.5694 11.5304 18.6647 11.4722C18.76 11.4141 18.8694 11.3833 18.9811 11.3833C19.0927 11.3833 19.2022 11.4141 19.2974 11.4722C19.3927 11.5304 19.4701 11.6138 19.5211 11.7131L21.4441 15.1541C21.4927 15.2337 21.5566 15.303 21.6321 15.3579C21.7077 15.4129 21.7933 15.4523 21.8841 15.4741L25.7661 16.2341C25.8768 16.2557 25.9792 16.308 26.0615 16.3852C26.1439 16.4624 26.2027 16.5612 26.2315 16.6703C26.2602 16.7794 26.2575 16.8944 26.2239 17.0021C26.1902 17.1097 26.1268 17.2058 26.0411 17.2791Z"
            fill="#709CED"></path>
        <path
            d="M19 0C15.2422 0 11.5687 1.11433 8.44417 3.20208C5.31964 5.28982 2.88436 8.25722 1.4463 11.729C0.00823236 15.2008 -0.368031 19.0211 0.365088 22.7067C1.09821 26.3924 2.90778 29.7778 5.56498 32.435C8.22218 35.0922 11.6077 36.9018 15.2933 37.6349C18.9789 38.368 22.7992 37.9918 26.271 36.5537C29.7428 35.1156 32.7102 32.6804 34.7979 29.5558C36.8857 26.4313 38 22.7578 38 19C37.9966 13.9619 35.9937 9.13122 32.4312 5.56877C28.8688 2.00633 24.0381 0.00344356 19 0ZM19 2.161C21.2089 2.16642 23.3956 2.60185 25.438 3.443L24.074 6.765C22.4616 6.10295 20.7351 5.76322 18.992 5.765L19 2.161ZM12.562 3.442L13.926 6.765C12.3129 7.43882 10.8454 8.41812 9.60401 9.649L7.04101 7.123C8.61831 5.54114 10.4952 4.28974 12.562 3.442ZM3.44201 12.562L6.76501 13.926C6.10296 15.5384 5.76323 17.2649 5.76501 19.008H2.16001C2.14636 16.7947 2.58251 14.6017 3.44201 12.562ZM7.07801 30.921C5.50646 29.3595 4.26606 27.497 3.43101 25.445L6.75801 24.081C7.42236 25.6989 8.40244 27.1682 9.64101 28.403L7.07801 30.921ZM19 35.839C16.7897 35.8482 14.6002 35.4122 12.562 34.557L13.926 31.231C15.5384 31.8931 17.265 32.2328 19.008 32.231L19 35.839ZM19 30.124C16.8012 30.1242 14.6518 29.4724 12.8235 28.2509C10.9951 27.0295 9.5701 25.2933 8.72853 23.262C7.88695 21.2306 7.66666 18.9953 8.0955 16.8388C8.52434 14.6822 9.58305 12.7013 11.1377 11.1464C12.6924 9.59161 14.6733 8.53272 16.8298 8.10368C18.9863 7.67465 21.2216 7.89475 23.2531 8.73614C25.2845 9.57753 27.0208 11.0024 28.2424 12.8306C29.464 14.6588 30.116 16.8082 30.116 19.007C30.116 21.9552 28.9449 24.7827 26.8603 26.8676C24.7756 28.9524 21.9482 30.1237 19 30.124ZM25.438 34.557L24.074 31.231C25.679 30.5686 27.1337 29.589 28.351 28.351L30.914 30.869C29.3698 32.4719 27.504 33.729 25.438 34.557ZM34.603 25.437L31.28 24.073C31.9421 22.4606 32.2818 20.7341 32.28 18.991H35.88C35.8731 21.2019 35.4402 23.3907 34.603 25.437ZM31.242 13.881C30.5774 12.263 29.5969 10.7938 28.358 9.559L30.921 7.078C32.4826 8.63282 33.7211 10.4813 34.565 12.517L31.242 13.881Z"
            fill="#709CED"></path>
        <path
            d="M25.755 16.243L21.873 15.483C21.7816 15.4627 21.6954 15.4238 21.6197 15.3687C21.544 15.3137 21.4805 15.2437 21.433 15.163L19.522 11.721C19.471 11.6217 19.3936 11.5384 19.2983 11.4802C19.2031 11.422 19.0936 11.3912 18.982 11.3912C18.8703 11.3912 18.7609 11.422 18.6656 11.4802C18.5703 11.5384 18.493 11.6217 18.442 11.721L16.52 15.163C16.4756 15.2462 16.413 15.3182 16.3368 15.3736C16.2605 15.429 16.1727 15.4664 16.08 15.483L12.198 16.243C12.0875 16.2637 11.9849 16.3143 11.9011 16.3891C11.8173 16.464 11.7556 16.5604 11.7227 16.6678C11.6897 16.7752 11.6867 16.8896 11.7141 16.9986C11.7415 17.1075 11.7982 17.2069 11.878 17.286L14.555 20.17C14.6217 20.2376 14.6709 20.3205 14.6981 20.4116C14.7253 20.5026 14.7297 20.5989 14.711 20.692L14.271 24.611C14.2602 24.7204 14.2781 24.8307 14.323 24.931C14.368 25.0313 14.4383 25.1182 14.5271 25.183C14.6159 25.2477 14.7201 25.2882 14.8294 25.3003C14.9386 25.3124 15.0491 25.2958 15.15 25.252L18.712 23.576C18.793 23.5355 18.8824 23.5145 18.973 23.5145C19.0636 23.5145 19.1529 23.5355 19.234 23.576L22.796 25.252C22.8966 25.2994 23.0082 25.3189 23.1189 25.3083C23.2297 25.2978 23.3356 25.2576 23.4255 25.1921C23.5154 25.1265 23.586 25.038 23.6299 24.9357C23.6738 24.8335 23.6893 24.7213 23.675 24.611L23.198 20.692C23.1844 20.5989 23.1913 20.5039 23.2183 20.4138C23.2452 20.3236 23.2915 20.2404 23.354 20.17L26.036 17.286C26.1212 17.2122 26.1839 17.1159 26.2169 17.008C26.2499 16.9002 26.2518 16.7853 26.2225 16.6764C26.1931 16.5676 26.1337 16.4691 26.051 16.3925C25.9684 16.3158 25.8657 16.264 25.755 16.243Z"
            fill="white"></path>
        <path
            d="M19.0009 30.498C16.7279 30.4988 14.5058 29.8256 12.6154 28.5635C10.725 27.3014 9.25128 25.5071 8.38058 23.4075C7.50989 21.3079 7.28131 18.9973 7.72375 16.7678C8.16619 14.5383 9.25978 12.4901 10.8662 10.8821C12.4727 9.27408 14.5199 8.17852 16.749 7.73395C18.978 7.28938 21.2889 7.51574 23.3893 8.38443C25.4897 9.25312 27.2854 10.7251 28.5493 12.6143C29.8132 14.5035 30.4885 16.725 30.4899 18.998C30.4899 22.0461 29.2798 24.9695 27.1255 27.1258C24.9712 29.2822 22.049 30.4951 19.0009 30.498ZM19.0009 8.25697C16.8759 8.25697 14.7987 8.88709 13.0319 10.0677C11.265 11.2482 9.88794 12.9262 9.07475 14.8894C8.26156 16.8526 8.04879 19.0129 8.46335 21.097C8.87791 23.1811 9.90118 25.0955 11.4038 26.5981C12.9063 28.1007 14.8207 29.124 16.9049 29.5385C18.989 29.9531 21.1493 29.7403 23.1125 28.9271C25.0757 28.1139 26.7537 26.7369 27.9342 24.97C29.1148 23.2032 29.7449 21.1259 29.7449 19.001C29.7415 16.1524 28.6084 13.4216 26.5943 11.4073C24.5802 9.39295 21.8494 8.26067 19.0009 8.25697Z"
            fill="white"></path>
    </g>
</svg>