<svg width="38" height="38" viewBox="0 0 38 38" fill="none" xmlns="http://www.w3.org/2000/svg">
    <path
        d="M12.562 34.558C14.6002 35.4131 16.7897 35.8491 19 35.84V32.24C17.257 32.2411 15.5306 31.9013 13.918 31.24L12.562 34.558Z"
        fill="white" />
    <path
        d="M3.44189 25.438C4.2685 27.4942 5.5057 29.3602 7.07789 30.922L9.64089 28.404C8.40517 27.1666 7.42519 25.698 6.75689 24.082L3.44189 25.438Z"
        fill="white" />
    <path
        d="M13.918 6.75806L12.555 3.43506C10.4924 4.2903 8.61865 5.54388 7.04102 7.12406L9.60402 9.64206C10.8445 8.41381 12.3089 7.43481 13.918 6.75806Z"
        fill="white" />
    <path
        d="M30.1171 19.0001C30.1171 16.8013 29.4651 14.652 28.2435 12.8238C27.022 10.9956 25.2857 9.57071 23.2544 8.72929C21.223 7.88787 18.9877 7.66772 16.8312 8.09667C14.6748 8.52562 12.6939 9.58441 11.1392 11.1392C9.58441 12.6939 8.52562 14.6748 8.09667 16.8312C7.66772 18.9877 7.88787 21.223 8.72929 23.2544C9.57071 25.2857 10.9956 27.022 12.8238 28.2435C14.652 29.4651 16.8013 30.1171 19.0001 30.1171C21.9461 30.1094 24.7693 28.9357 26.8525 26.8525C28.9357 24.7693 30.1094 21.9461 30.1171 19.0001ZM25.1171 22.3231C24.4975 22.9569 23.6787 23.3584 22.7982 23.4602C21.9177 23.562 21.0289 23.3579 20.2811 22.8821L21.6811 26.0411C21.7086 26.1069 21.7194 26.1785 21.7126 26.2496C21.7057 26.3206 21.6814 26.3889 21.6418 26.4482C21.6023 26.5076 21.5486 26.5563 21.4857 26.5899C21.4227 26.6236 21.3524 26.6411 21.2811 26.6411H16.7541C16.6827 26.6411 16.6124 26.6236 16.5495 26.5899C16.4865 26.5563 16.4329 26.5076 16.3933 26.4482C16.3537 26.3889 16.3294 26.3206 16.3226 26.2496C16.3157 26.1785 16.3265 26.1069 16.3541 26.0411L17.7541 22.9191C17.1478 23.3169 16.4371 23.5257 15.7121 23.5191C14.7071 23.5075 13.7457 23.1068 13.0301 22.4011C12.6776 22.0497 12.398 21.6323 12.2071 21.1726C12.0163 20.713 11.9181 20.2202 11.9181 19.7226C11.9181 19.2249 12.0163 18.7321 12.2071 18.2725C12.398 17.8129 12.6776 17.3954 13.0301 17.0441L18.5541 11.5271C18.6717 11.4125 18.8294 11.3484 18.9936 11.3484C19.1577 11.3484 19.3154 11.4125 19.4331 11.5271L24.9911 16.9661C25.713 17.6625 26.1313 18.6156 26.155 19.6185C26.1788 20.6213 25.8052 21.5931 25.1171 22.3231Z"
        fill="#5F43B9" />
    <path
        d="M6.75785 13.9231L3.43485 12.5551C2.58303 14.5964 2.1498 16.7881 2.16085 19.0001H5.76085C5.75951 17.259 6.09819 15.5343 6.75785 13.9231Z"
        fill="white" />
    <path
        d="M25.437 3.44203C23.3946 2.60089 21.2079 2.16545 18.999 2.16003V5.76003C20.742 5.759 22.4684 6.0987 24.081 6.76003L25.437 3.44203Z"
        fill="white" />
    <path
        d="M28.3579 9.559C29.5936 10.7964 30.5736 12.265 31.2419 13.881L34.5649 12.517C33.7237 10.4799 32.4849 8.63085 30.9209 7.078L28.3579 9.559Z"
        fill="white" />
    <path
        d="M24.082 31.242L25.446 34.565C27.5084 33.7339 29.3738 32.4799 30.922 30.884L28.359 28.371C27.1359 29.5998 25.6826 30.5754 24.082 31.242Z"
        fill="white" />
    <path
        d="M31.2791 24.082L34.6011 25.445C35.4387 23.4015 35.874 21.2155 35.8831 19.007H32.2831C32.2784 20.7475 31.9375 22.4708 31.2791 24.082Z"
        fill="white" />
    <path
        d="M19 0C15.2422 0 11.5687 1.11433 8.44417 3.20208C5.31964 5.28982 2.88436 8.25722 1.4463 11.729C0.00823236 15.2008 -0.368031 19.0211 0.365088 22.7067C1.09821 26.3924 2.90778 29.7778 5.56498 32.435C8.22218 35.0922 11.6077 36.9018 15.2933 37.6349C18.9789 38.368 22.7992 37.9918 26.271 36.5537C29.7428 35.1156 32.7102 32.6804 34.7979 29.5558C36.8857 26.4313 38 22.7578 38 19C37.9966 13.9619 35.9937 9.13122 32.4312 5.56877C28.8688 2.00633 24.0381 0.00344356 19 0ZM19 2.161C21.2089 2.16642 23.3956 2.60185 25.438 3.443L24.074 6.765C22.4616 6.10295 20.7351 5.76322 18.992 5.765L19 2.161ZM12.562 3.442L13.926 6.765C12.3129 7.43882 10.8454 8.41812 9.60401 9.649L7.04101 7.123C8.61831 5.54114 10.4952 4.28974 12.562 3.442ZM3.44201 12.562L6.76501 13.926C6.10296 15.5384 5.76323 17.2649 5.76501 19.008H2.16001C2.14636 16.7947 2.58251 14.6017 3.44201 12.562ZM7.07801 30.921C5.50646 29.3595 4.26606 27.497 3.43101 25.445L6.75801 24.081C7.42236 25.6989 8.40244 27.1682 9.64101 28.403L7.07801 30.921ZM19 35.839C16.7897 35.8482 14.6002 35.4122 12.562 34.557L13.926 31.231C15.5384 31.8931 17.265 32.2328 19.008 32.231L19 35.839ZM19 30.124C16.8012 30.1242 14.6518 29.4724 12.8235 28.2509C10.9951 27.0295 9.5701 25.2933 8.72853 23.262C7.88695 21.2306 7.66666 18.9953 8.0955 16.8388C8.52434 14.6822 9.58305 12.7013 11.1377 11.1464C12.6924 9.59161 14.6733 8.53272 16.8298 8.10368C18.9863 7.67465 21.2216 7.89475 23.2531 8.73614C25.2845 9.57753 27.0208 11.0024 28.2424 12.8306C29.464 14.6588 30.116 16.8082 30.116 19.007C30.116 21.9552 28.9449 24.7827 26.8603 26.8676C24.7756 28.9524 21.9482 30.1237 19 30.124ZM25.438 34.557L24.074 31.231C25.679 30.5686 27.1337 29.589 28.351 28.351L30.914 30.869C29.3698 32.4719 27.504 33.729 25.438 34.557ZM34.603 25.437L31.28 24.073C31.9421 22.4606 32.2818 20.7341 32.28 18.991H35.88C35.8731 21.2019 35.4402 23.3907 34.603 25.437ZM31.242 13.881C30.5774 12.263 29.5969 10.7938 28.358 9.559L30.921 7.078C32.4826 8.63282 33.7211 10.4813 34.565 12.517L31.242 13.881Z"
        fill="#5F43B9" />
    <path
        d="M19.4399 11.519C19.3223 11.4044 19.1646 11.3403 19.0004 11.3403C18.8363 11.3403 18.6786 11.4044 18.5609 11.519L13.0399 17.04C12.6875 17.3913 12.4078 17.8088 12.217 18.2684C12.0262 18.728 11.928 19.2208 11.928 19.7185C11.928 20.2161 12.0262 20.7089 12.217 21.1685C12.4078 21.6282 12.6875 22.0456 13.0399 22.397C13.7536 23.1055 14.7162 23.5068 15.7219 23.515C16.4468 23.5205 17.1572 23.3118 17.7639 22.915L16.3639 26.037C16.3364 26.1028 16.3256 26.1744 16.3324 26.2455C16.3393 26.3165 16.3636 26.3848 16.4032 26.4441C16.4427 26.5035 16.4964 26.5522 16.5593 26.5858C16.6223 26.6195 16.6926 26.637 16.7639 26.637H21.2869C21.3583 26.637 21.4286 26.6195 21.4915 26.5858C21.5545 26.5522 21.6081 26.5035 21.6477 26.4441C21.6873 26.3848 21.7116 26.3165 21.7184 26.2455C21.7253 26.1744 21.7145 26.1028 21.6869 26.037L20.2869 22.878C21.0348 23.3537 21.9235 23.5579 22.8041 23.4561C23.6846 23.3543 24.5033 22.9528 25.1229 22.319C25.8087 21.5884 26.1804 20.6179 26.1582 19.6161C26.1359 18.6144 25.7215 17.6613 25.0039 16.962L19.4399 11.519Z"
        fill="white" />
    <path
        d="M19.0009 30.498C16.7279 30.4988 14.5058 29.8256 12.6154 28.5635C10.725 27.3014 9.25128 25.5071 8.38058 23.4075C7.50989 21.3079 7.28131 18.9973 7.72375 16.7678C8.16619 14.5383 9.25978 12.4901 10.8662 10.8821C12.4727 9.27408 14.5199 8.17852 16.749 7.73395C18.978 7.28938 21.2889 7.51574 23.3893 8.38443C25.4897 9.25312 27.2854 10.7251 28.5493 12.6143C29.8132 14.5035 30.4885 16.725 30.4899 18.998C30.4899 22.0461 29.2798 24.9695 27.1255 27.1258C24.9712 29.2822 22.049 30.4951 19.0009 30.498ZM19.0009 8.25697C16.8759 8.25697 14.7987 8.88709 13.0319 10.0677C11.265 11.2482 9.88794 12.9262 9.07475 14.8894C8.26156 16.8526 8.04879 19.0129 8.46335 21.097C8.87791 23.1811 9.90118 25.0955 11.4038 26.5981C12.9063 28.1007 14.8207 29.124 16.9049 29.5385C18.989 29.9531 21.1493 29.7403 23.1125 28.9271C25.0757 28.1139 26.7537 26.7369 27.9342 24.97C29.1148 23.2032 29.7449 21.1259 29.7449 19.001C29.7415 16.1524 28.6084 13.4216 26.5943 11.4073C24.5802 9.39295 21.8494 8.26067 19.0009 8.25697Z"
        fill="white" />
</svg>