<svg width="39" height="38" viewBox="0 0 39 38" fill="none" xmlns="http://www.w3.org/2000/svg">
<mask id="mask0_564_4288" style="mask-type:luminance" maskUnits="userSpaceOnUse" x="0" y="0" width="39" height="38">
<path d="M38.5 0H0.5V38H38.5V0Z" fill="white"/>
</mask>
<g mask="url(#mask0_564_4288)">
<path d="M3.94202 25.438C4.76862 27.4942 6.00582 29.3602 7.57802 30.922L10.141 28.404C8.90529 27.1666 7.92532 25.698 7.25702 24.082L3.94202 25.438Z" fill="white"/>
<path d="M13.062 34.558C15.1002 35.4132 17.2897 35.8492 19.5 35.84V32.24C17.757 32.2411 16.0306 31.9014 14.418 31.24L13.062 34.558Z" fill="white"/>
<path d="M25.937 3.442C23.8946 2.60085 21.7079 2.16542 19.499 2.16V5.76C21.242 5.75896 22.9684 6.09867 24.581 6.76L25.937 3.442Z" fill="white"/>
<path d="M7.25797 13.923L3.93497 12.555C3.08316 14.5964 2.64993 16.788 2.66097 19H6.26097C6.25964 17.2589 6.59831 15.5343 7.25797 13.923Z" fill="white"/>
<path d="M14.418 6.758L13.055 3.435C10.9924 4.29025 9.11865 5.54382 7.54102 7.124L10.104 9.642C11.3445 8.41376 12.8089 7.43475 14.418 6.758Z" fill="white"/>
<path d="M24.582 31.242L25.946 34.565C28.0084 33.7339 29.8738 32.48 31.422 30.884L28.859 28.371C27.6359 29.5998 26.1826 30.5754 24.582 31.242Z" fill="white"/>
<path d="M31.7791 24.082L35.1011 25.445C35.9387 23.4015 36.374 21.2155 36.3831 19.007H32.7831C32.7784 20.7475 32.4375 22.4708 31.7791 24.082Z" fill="white"/>
<path d="M28.858 9.559C30.0938 10.7964 31.0737 12.265 31.742 13.881L35.065 12.517C34.2238 10.4799 32.985 8.63085 31.421 7.078L28.858 9.559Z" fill="white"/>
<path d="M30.6171 19C30.6171 16.8013 29.9651 14.6519 28.7435 12.8237C27.522 10.9955 25.7857 9.57065 23.7544 8.72923C21.723 7.88781 19.4877 7.66766 17.3312 8.09661C15.1748 8.52556 13.1939 9.58435 11.6392 11.1391C10.0844 12.6938 9.02562 14.6747 8.59667 16.8312C8.16772 18.9877 8.38787 21.2229 9.22929 23.2543C10.0707 25.2857 11.4956 27.0219 13.3238 28.2434C15.152 29.465 17.3013 30.117 19.5001 30.117C22.4461 30.1093 25.2693 28.9356 27.3525 26.8525C29.4357 24.7693 30.6094 21.9461 30.6171 19ZM26.5411 17.279L23.8591 20.163C23.7946 20.2321 23.7471 20.3152 23.72 20.4058C23.6929 20.4963 23.6871 20.5919 23.7031 20.685L24.1801 24.604C24.1938 24.7142 24.1777 24.826 24.1336 24.9278C24.0895 25.0297 24.019 25.1179 23.9293 25.1833C23.8396 25.2487 23.7341 25.2889 23.6236 25.2998C23.5131 25.3106 23.4018 25.2917 23.3011 25.245L19.7391 23.569C19.658 23.5285 19.5687 23.5074 19.4781 23.5074C19.3875 23.5074 19.2981 23.5285 19.2171 23.569L15.6541 25.244C15.5532 25.2884 15.4425 25.3055 15.333 25.2937C15.2235 25.2818 15.119 25.2414 15.03 25.1765C14.9411 25.1116 14.8707 25.0245 14.8259 24.9238C14.7812 24.8232 14.7636 24.7126 14.7751 24.603L15.2151 20.684C15.2321 20.5909 15.2268 20.495 15.1997 20.4043C15.1726 20.3135 15.1244 20.2305 15.0591 20.162L12.3771 17.278C12.2972 17.1989 12.2406 17.0995 12.2132 16.9905C12.1858 16.8816 12.1888 16.7672 12.2217 16.6598C12.2547 16.5523 12.3164 16.456 12.4002 16.3811C12.484 16.3062 12.5866 16.2557 12.6971 16.235L16.5791 15.475C16.6724 15.4601 16.761 15.4233 16.8374 15.3677C16.9139 15.3121 16.9761 15.2392 17.0191 15.155L18.9411 11.713C18.992 11.6137 19.0694 11.5304 19.1647 11.4722C19.26 11.414 19.3694 11.3832 19.4811 11.3832C19.5927 11.3832 19.7022 11.414 19.7974 11.4722C19.8927 11.5304 19.9701 11.6137 20.0211 11.713L21.9441 15.154C21.9927 15.2337 22.0566 15.303 22.1321 15.3579C22.2077 15.4128 22.2933 15.4523 22.3841 15.474L26.2661 16.234C26.3768 16.2556 26.4792 16.308 26.5615 16.3851C26.6439 16.4623 26.7027 16.5611 26.7315 16.6702C26.7602 16.7793 26.7575 16.8943 26.7239 17.002C26.6902 17.1097 26.6268 17.2057 26.5411 17.279Z" fill="#709CED"/>
<path d="M19.5 0C15.7422 0 12.0687 1.11433 8.94417 3.20208C5.81964 5.28982 3.38436 8.25722 1.9463 11.729C0.508232 15.2008 0.131969 19.0211 0.865088 22.7067C1.59821 26.3924 3.40778 29.7778 6.06498 32.435C8.72218 35.0922 12.1077 36.9018 15.7933 37.6349C19.4789 38.368 23.2992 37.9918 26.771 36.5537C30.2428 35.1156 33.2102 32.6804 35.2979 29.5558C37.3857 26.4313 38.5 22.7578 38.5 19C38.4966 13.9619 36.4937 9.13122 32.9312 5.56877C29.3688 2.00633 24.5381 0.00344356 19.5 0ZM19.5 2.161C21.7089 2.16642 23.8956 2.60185 25.938 3.443L24.574 6.765C22.9616 6.10295 21.2351 5.76322 19.492 5.765L19.5 2.161ZM13.062 3.442L14.426 6.765C12.8129 7.43882 11.3454 8.41812 10.104 9.649L7.54101 7.123C9.11831 5.54114 10.9952 4.28974 13.062 3.442ZM3.94201 12.562L7.26501 13.926C6.60296 15.5384 6.26323 17.2649 6.26501 19.008H2.66001C2.64636 16.7947 3.08251 14.6017 3.94201 12.562ZM7.57801 30.921C6.00646 29.3595 4.76606 27.497 3.93101 25.445L7.25801 24.081C7.92236 25.6989 8.90244 27.1682 10.141 28.403L7.57801 30.921ZM19.5 35.839C17.2897 35.8482 15.1002 35.4122 13.062 34.557L14.426 31.231C16.0384 31.8931 17.765 32.2328 19.508 32.231L19.5 35.839ZM19.5 30.124C17.3012 30.1242 15.1518 29.4724 13.3235 28.2509C11.4951 27.0295 10.0701 25.2933 9.22853 23.262C8.38695 21.2306 8.16666 18.9953 8.5955 16.8388C9.02434 14.6822 10.083 12.7013 11.6377 11.1464C13.1924 9.59161 15.1733 8.53272 17.3298 8.10368C19.4863 7.67465 21.7216 7.89475 23.7531 8.73614C25.7845 9.57753 27.5208 11.0024 28.7424 12.8306C29.964 14.6588 30.616 16.8082 30.616 19.007C30.616 21.9552 29.4449 24.7827 27.3603 26.8676C25.2756 28.9524 22.4482 30.1237 19.5 30.124ZM25.938 34.557L24.574 31.231C26.179 30.5686 27.6337 29.589 28.851 28.351L31.414 30.869C29.8698 32.4719 28.004 33.729 25.938 34.557ZM35.103 25.437L31.78 24.073C32.4421 22.4606 32.7818 20.7341 32.78 18.991H36.38C36.3731 21.2019 35.9402 23.3907 35.103 25.437ZM31.742 13.881C31.0774 12.263 30.0969 10.7938 28.858 9.559L31.421 7.078C32.9826 8.63282 34.2211 10.4813 35.065 12.517L31.742 13.881Z" fill="#709CED"/>
<path d="M26.255 16.243L22.373 15.483C22.2816 15.4627 22.1954 15.4237 22.1197 15.3687C22.044 15.3137 21.9805 15.2436 21.933 15.163L20.022 11.721C19.971 11.6217 19.8936 11.5384 19.7983 11.4802C19.7031 11.422 19.5936 11.3912 19.482 11.3912C19.3703 11.3912 19.2609 11.422 19.1656 11.4802C19.0703 11.5384 18.993 11.6217 18.942 11.721L17.02 15.163C16.9756 15.2461 16.913 15.3181 16.8368 15.3736C16.7605 15.429 16.6727 15.4664 16.58 15.483L12.698 16.243C12.5875 16.2637 12.4849 16.3142 12.4011 16.3891C12.3173 16.464 12.2556 16.5603 12.2227 16.6678C12.1897 16.7752 12.1867 16.8896 12.2141 16.9985C12.2415 17.1075 12.2982 17.2069 12.378 17.286L15.055 20.17C15.1217 20.2376 15.1709 20.3205 15.1981 20.4115C15.2253 20.5026 15.2297 20.5989 15.211 20.692L14.771 24.611C14.7602 24.7204 14.7781 24.8307 14.823 24.931C14.868 25.0313 14.9383 25.1182 15.0271 25.1829C15.1159 25.2477 15.2201 25.2881 15.3294 25.3003C15.4386 25.3124 15.5491 25.2957 15.65 25.252L19.212 23.576C19.293 23.5355 19.3824 23.5144 19.473 23.5144C19.5636 23.5144 19.6529 23.5355 19.734 23.576L23.296 25.252C23.3966 25.2994 23.5082 25.3189 23.6189 25.3083C23.7297 25.2978 23.8356 25.2576 23.9255 25.1921C24.0154 25.1265 24.086 25.038 24.1299 24.9357C24.1738 24.8335 24.1893 24.7213 24.175 24.611L23.698 20.692C23.6844 20.5989 23.6913 20.5039 23.7183 20.4137C23.7452 20.3236 23.7915 20.2404 23.854 20.17L26.536 17.286C26.6212 17.2122 26.6839 17.1158 26.7169 17.008C26.7499 16.9002 26.7518 16.7853 26.7225 16.6764C26.6931 16.5675 26.6337 16.4691 26.551 16.3925C26.4684 16.3158 26.3657 16.264 26.255 16.243Z" fill="white"/>
<path d="M19.501 30.498C17.2281 30.4988 15.0059 29.8256 13.1155 28.5635C11.2251 27.3014 9.7514 25.5072 8.8807 23.4076C8.01001 21.308 7.78143 18.9974 8.22387 16.7679C8.66631 14.5384 9.7599 12.4901 11.3664 10.8821C12.9728 9.27411 15.02 8.17856 17.2491 7.73398C19.4782 7.28941 21.789 7.51578 23.8894 8.38446C25.9899 9.25315 27.7855 10.7251 29.0494 12.6143C30.3133 14.5035 30.9886 16.725 30.99 18.998C30.99 22.0461 29.7799 24.9695 27.6257 27.1258C25.4714 29.2822 22.5491 30.4951 19.501 30.498ZM19.501 8.257C17.3761 8.257 15.2988 8.88713 13.532 10.0677C11.7651 11.2483 10.3881 12.9262 9.57487 14.8895C8.76168 16.8527 8.54892 19.0129 8.96347 21.0971C9.37803 23.1812 10.4013 25.0956 11.9039 26.5982C13.4065 28.1007 15.3208 29.124 17.405 29.5386C19.4891 29.9531 21.6494 29.7404 23.6126 28.9272C25.5758 28.114 27.2538 26.7369 28.4343 24.97C29.6149 23.2032 30.245 21.126 30.245 19.001C30.2416 16.1525 29.1086 13.4216 27.0944 11.4073C25.0803 9.39299 22.3496 8.26071 19.501 8.257Z" fill="white"/>
</g>
</svg>
