<svg width="39" height="38" viewBox="0 0 39 38" fill="none" xmlns="http://www.w3.org/2000/svg">
<g clip-path="url(#clip0_564_4320)">
<mask id="mask0_564_4320" style="mask-type:luminance" maskUnits="userSpaceOnUse" x="0" y="0" width="39" height="38">
<path d="M38.5 0H0.5V38H38.5V0Z" fill="white"/>
</mask>
<g mask="url(#mask0_564_4320)">
<path d="M9.41797 16.366L8.53897 14.242C7.22595 14.7964 6.0319 15.5983 5.02197 16.604L6.66097 18.204C7.45019 17.416 8.38706 16.7914 9.41797 16.366Z" fill="white"/>
<path d="M23.4191 24.241H21.1391C21.1562 25.3583 20.9246 26.4653 20.4611 27.482L22.5851 28.361C23.1437 27.0597 23.4276 25.6571 23.4191 24.241Z" fill="white"/>
<path d="M16.78 14.287C15.4806 13.7215 14.0771 13.4346 12.66 13.445V15.725C13.7716 15.7274 14.8722 15.9451 15.901 16.366L16.78 14.287Z" fill="white"/>
<path d="M15.901 32.08L16.78 34.204C18.082 33.6493 19.2734 32.8644 20.297 31.887L18.658 30.248C17.8666 31.0319 16.9302 31.6541 15.901 32.08Z" fill="white"/>
<path d="M4.17996 24.204C4.18236 23.0924 4.40003 21.9918 4.82096 20.963L2.69796 20.084C2.15428 21.3902 1.86836 22.7892 1.85596 24.204H4.17996Z" fill="white"/>
<path d="M8.54004 34.165C9.8408 34.7262 11.2434 35.0129 12.66 35.007V32.691C11.5485 32.6886 10.4479 32.4709 9.41904 32.05L8.54004 34.165Z" fill="white"/>
<path d="M22.621 20.083C22.096 18.7761 21.3073 17.5915 20.304 16.603L18.665 18.203C19.4513 18.994 20.0763 19.9304 20.505 20.96L22.621 20.083Z" fill="white"/>
<path d="M2.698 28.324C3.21141 29.6478 4.00132 30.8468 5.015 31.841L6.655 30.201C5.88079 29.4002 5.25747 28.4662 4.815 27.444L2.698 28.324Z" fill="white"/>
<path d="M35.139 30.844H24.901C23.6335 33.1738 21.7358 35.0999 19.425 36.402H35.147C35.6244 36.402 36.0823 36.2124 36.4198 35.8748C36.7574 35.5372 36.947 35.0794 36.947 34.602V32.642C36.939 32.1659 36.7456 31.7118 36.408 31.376C36.0704 31.0403 35.6152 30.8494 35.139 30.844Z" fill="#BA66E0"/>
<path d="M36.6971 23.526H26.5331V24.204C26.534 25.8581 26.2362 27.4988 25.6541 29.047H36.6971C36.9334 29.047 37.1675 29.0005 37.3859 28.91C37.6043 28.8195 37.8027 28.687 37.9698 28.5198C38.137 28.3527 38.2696 28.1542 38.36 27.9358C38.4505 27.7175 38.4971 27.4834 38.4971 27.247V25.287C38.4918 24.8148 38.2992 24.3641 37.9617 24.0338C37.6241 23.7036 37.1692 23.5209 36.6971 23.526Z" fill="#BA66E0"/>
<path d="M35.139 21.76C35.6164 21.76 36.0742 21.5704 36.4118 21.2328C36.7493 20.8952 36.939 20.4374 36.939 19.96V18C36.939 17.5226 36.7493 17.0648 36.4118 16.7272C36.0742 16.3897 35.6164 16.2 35.139 16.2H24.022C25.1988 17.8569 25.9905 19.7558 26.339 21.758L35.139 21.76Z" fill="#BA66E0"/>
<path d="M36.696 8.92201H18.696C18.4596 8.92201 18.2256 8.96857 18.0072 9.05903C17.7888 9.14949 17.5903 9.28207 17.4232 9.44922C17.2561 9.61637 17.1235 9.8148 17.033 10.0332C16.9426 10.2516 16.896 10.4856 16.896 10.722V11.005C19.0363 11.6775 20.9749 12.8737 22.536 14.485H36.689C37.1664 14.485 37.6242 14.2954 37.9618 13.9578C38.2994 13.6202 38.489 13.1624 38.489 12.685V10.725C38.4915 10.4884 38.4469 10.2536 38.3579 10.0344C38.2688 9.81514 38.1369 9.61582 37.9701 9.44802C37.8032 9.28023 37.6046 9.1473 37.3859 9.057C37.1672 8.96669 36.9326 8.92081 36.696 8.92201Z" fill="#BA66E0"/>
<path d="M17.138 7.16101H35.138C35.6154 7.16101 36.0732 6.97137 36.4108 6.63381C36.7484 6.29624 36.938 5.8384 36.938 5.36101V3.40101C36.938 2.92362 36.7484 2.46579 36.4108 2.12822C36.0732 1.79066 35.6154 1.60101 35.138 1.60101H17.138C16.6606 1.60101 16.2028 1.79066 15.8652 2.12822C15.5277 2.46579 15.338 2.92362 15.338 3.40101V5.36101C15.3504 5.8345 15.544 6.28517 15.8789 6.62009C16.2139 6.955 16.6645 7.14862 17.138 7.16101Z" fill="#BA66E0"/>
<path d="M24.82 24.241C24.82 21.836 24.1068 19.485 22.7707 17.4853C21.4345 15.4856 19.5354 13.927 17.3134 13.0066C15.0915 12.0863 12.6465 11.8455 10.2877 12.3147C7.9289 12.7839 5.76219 13.942 4.06159 15.6426C2.36098 17.3432 1.20285 19.5099 0.733656 21.8687C0.26446 24.2275 0.505269 26.6725 1.42563 28.8944C2.34599 31.1164 3.90457 33.0155 5.90427 34.3517C7.90397 35.6878 10.255 36.401 12.66 36.401C14.2571 36.4018 15.8387 36.0878 17.3144 35.477C18.79 34.8662 20.1309 33.9705 21.2602 32.8412C22.3895 31.7119 23.2852 30.3711 23.896 28.8954C24.5068 27.4197 24.8208 25.8381 24.82 24.241ZM20.297 16.604C21.3027 17.5905 22.0918 18.7757 22.614 20.084L20.49 20.963C20.0631 19.9324 19.4379 18.9957 18.65 18.206L20.297 16.604ZM8.53901 14.242L9.41801 16.366C8.38742 16.793 7.4507 17.4181 6.66101 18.206L5.02201 16.606C6.03176 15.5996 7.22582 14.797 8.53901 14.242ZM2.69801 20.088L4.82201 20.967C4.40108 21.9958 4.18341 23.0964 4.18101 24.208H1.86301C1.87667 22.7941 2.16007 21.3957 2.69801 20.088ZM5.02201 31.841C4.00749 30.8475 3.21745 29.6483 2.70501 28.324L4.82101 27.445C5.26164 28.4682 5.88517 29.4025 6.66101 30.202L5.02201 31.841ZM12.659 35C11.2424 35.0059 9.83976 34.7192 8.53901 34.158L9.41801 32.034C10.4468 32.4549 11.5474 32.6726 12.659 32.675V35ZM12.659 15.724V13.444C14.0761 13.4336 15.4796 13.7205 16.779 14.286L15.9 16.365C14.8712 15.9441 13.7706 15.7264 12.659 15.724ZM16.779 34.202L15.9 32.078C16.9306 31.6511 17.8673 31.0259 18.657 30.238L20.296 31.877C19.2751 32.8596 18.0836 33.6478 16.78 34.203L16.779 34.202ZM21.138 24.24H23.418C23.4239 25.6567 23.1372 27.0593 22.576 28.36L20.452 27.481C20.9225 26.4667 21.1574 25.359 21.139 24.241L21.138 24.24Z" fill="#BA66E0"/>
</g>
</g>
<defs>
<clipPath id="clip0_564_4320">
<rect width="38" height="38" fill="white" transform="translate(0.5)"/>
</clipPath>
</defs>
</svg>
