<svg width="24" height="24" viewBox="0 0 24 24" fill="none" xmlns="http://www.w3.org/2000/svg">
<g clip-path="url(#clip0_334_1846)">
<path d="M22.0739 24H1.92555C0.861547 24 0 23.1371 0 22.0738V1.92618C0 0.862931 0.861547 0 1.92555 0H22.0738C23.1372 0 24.0001 0.862931 24.0001 1.92618V22.0738C24.0001 23.1372 23.1372 24 22.0739 24Z" fill="#F9E000"/>
<path d="M17.6898 11.0627L13.2879 13.6867C13.1989 13.7395 13.127 13.6979 13.127 13.5956V11.8098H10.6836C10.5807 11.8098 10.496 11.8938 10.496 11.9975V15.6212C10.496 15.7257 10.424 15.7658 10.3344 15.7129L8.77938 14.7978C8.69042 14.7449 8.61778 14.6186 8.61778 14.5149V10.4947C8.61778 10.1843 8.87036 9.93018 9.18151 9.93018H13.127V8.10426C13.127 8.0232 13.1834 7.99141 13.2533 8.03226L17.6898 10.6774C17.869 10.7846 17.8676 10.9568 17.6898 11.0627ZM19.3238 7.05584L12.6486 3.15696C12.2902 2.94736 11.7089 2.94736 11.3505 3.15696L4.67527 7.05584C4.36188 7.23856 4.10791 7.6809 4.10791 8.04432V15.9493C4.10791 16.3119 4.36188 16.7543 4.67516 16.9378L11.3504 20.8366C11.7088 21.0461 12.2901 21.0461 12.6485 20.8366L19.3238 16.9378C19.6371 16.7543 19.8911 16.3119 19.8911 15.9493V8.04421C19.8911 7.6809 19.6385 7.23856 19.3238 7.05584Z" fill="#1977D1"/>
</g>
<defs>
<clipPath id="clip0_334_1846">
<rect width="24" height="24" fill="white"/>
</clipPath>
</defs>
</svg>
