<svg width="120" height="120" viewBox="0 0 120 120" fill="none" xmlns="http://www.w3.org/2000/svg">
    <path
        d="M57.8475 119.182L24.6593 85.8191C18.8416 79.9757 14.5476 72.7799 12.1577 64.8693C9.76784 56.9588 9.35591 48.5778 10.9584 40.4689C12.5609 32.3601 16.1284 24.7738 21.3447 18.3823C26.5611 11.9908 33.2652 6.99146 40.863 3.82723C48.4608 0.663005 56.7178 -0.568385 64.9022 0.242177C73.0866 1.05274 80.9457 3.88022 87.7833 8.47409C94.6208 13.068 100.225 19.2863 104.101 26.5783C107.976 33.8702 110.002 42.0104 110 50.2777C110.012 56.9034 108.699 63.4638 106.139 69.5694C103.579 75.6749 99.825 81.2009 95.099 85.8191L61.911 119.182C61.6458 119.45 61.3287 119.661 60.9793 119.802C60.6298 119.942 60.2554 120.009 59.8792 119.999C59.1235 119.995 58.3975 119.702 57.8475 119.182ZM37.3929 27.2646C34.4222 30.251 32.0658 33.7964 30.458 37.6983C28.8503 41.6001 28.0229 45.7822 28.0229 50.0055C28.023 58.535 31.3937 66.7151 37.3934 72.7462C43.3931 78.7774 51.5305 82.1657 60.0153 82.1656C68.5001 82.1655 76.6374 78.7771 82.637 72.7458C88.7327 66.7547 91.9838 58.5839 91.9838 50.0048C91.9789 43.649 90.1007 37.4373 86.5864 32.1538C83.0721 26.8703 78.0793 22.7521 72.2384 20.319C66.3975 17.886 59.9704 17.2473 53.7687 18.4836C47.567 19.7198 41.8683 22.7751 37.3929 27.2646ZM56.2218 78.8746L57.1699 71.5214C54.3256 71.1123 51.4808 70.1593 49.0426 68.6615L45.2495 75.061C41.9984 73.0186 39.0185 70.4313 36.7154 67.2994L42.6757 62.9421C41.4564 61.3073 40.5082 59.6739 39.831 57.7678L32.9231 60.4914C31.6699 57.1388 31.0274 53.5868 31.0264 50.0053V49.0518L38.3411 49.3246C38.4535 46.4026 39.1441 43.5325 40.3727 40.8819L33.7355 37.7503C34.2775 36.6608 34.8192 35.5713 35.4958 34.4818C36.8508 32.3031 38.6121 30.2608 40.5078 28.49L45.5198 33.9372C47.6445 31.907 50.1884 30.3728 52.9704 29.444L50.5326 22.4985C51.8184 22.0546 53.1301 21.6908 54.4604 21.4091C56.2216 21.0008 58.1179 20.8644 60.015 20.8644H61.911L61.5049 28.2177C64.3744 28.488 67.1727 29.2718 69.7677 30.5322L73.0189 23.86C76.5407 25.6305 79.5205 28.0809 82.0942 31.0769L76.5407 35.843C78.4368 38.1583 79.7916 40.6092 80.6049 43.4691L87.649 41.2902C88.3144 43.2719 88.7242 45.3312 88.8682 47.4178C89.0031 48.2352 89.0031 49.0519 89.0031 50.0049C89.0255 50.9602 88.9805 51.916 88.8682 52.8649L81.5535 52.1839C81.2757 55.102 80.3992 57.9305 78.9793 60.491L85.4818 64.0312C83.5699 67.4234 81.0428 70.4255 78.0313 72.8823L73.4257 67.0266C71.1223 68.8199 68.5028 70.1599 65.7048 70.9761L67.7364 78.0564C65.2241 78.7708 62.6267 79.1374 60.0158 79.146C58.747 79.128 57.4803 79.0374 56.2218 78.8746ZM40.7791 50.0048C40.7791 60.6265 49.4488 69.3418 60.0152 69.3418C62.5417 69.3436 65.0438 68.8446 67.3783 67.8734C69.7128 66.9023 71.834 65.478 73.6205 63.682C75.407 61.886 76.8237 59.7536 77.7897 57.4068C78.7557 55.0599 79.2519 52.5446 79.25 50.0048C79.25 39.384 70.581 30.6687 60.0152 30.6687C49.4493 30.6687 40.7791 39.384 40.7791 50.0048Z"
        fill="#E8455B" />
</svg>