<svg width="200" height="44" viewBox="0 0 200 44" fill="none" xmlns="http://www.w3.org/2000/svg">
    <path
        d="M18.7158 31.2064C22.8215 31.2064 26.759 29.5625 29.6621 26.6364C32.5652 23.7102 34.1962 19.7414 34.1962 15.6032C34.1962 11.465 32.5652 7.49625 29.6621 4.57008C26.759 1.64391 22.8215 0 18.7158 0H4.08155C3.00056 0.00491691 1.96523 0.439929 1.20085 1.21038C0.436464 1.98083 0.0048782 3.02437 0 4.11394V39.8859C0 40.9771 0.430031 42.0235 1.19549 42.795C1.96095 43.5666 2.99914 44 4.08167 44C5.16419 44 6.20238 43.5666 6.96784 42.795C7.7333 42.0235 8.16333 40.9771 8.16333 39.8859V31.2064H18.7158ZM26.0329 15.6532C26.0297 17.6082 25.2578 19.4822 23.8862 20.8646C22.5147 22.247 20.6555 23.0251 18.7158 23.0283H8.16333V8.27812H18.7158C20.6555 8.28133 22.5147 9.05938 23.8862 10.4418C25.2578 11.8242 26.0297 13.6982 26.0329 15.6532Z"
        fill="#E8455B" />
    <path
        d="M87.4109 44.0009C88.4915 43.996 89.5264 43.561 90.2905 42.7906C91.0546 42.0202 91.3719 41.0905 91.3768 40.0009V32.0009L115.375 6.97628C116.127 6.19125 116.54 4.59233 116.521 3.50095C116.502 2.40956 116.294 1.75937 115.515 1.00095C114.737 0.242526 113.58 -0.0178751 112.498 0.00094298C111.415 0.0197611 110.256 0.471995 109.503 1.25703L91.3768 20.0009V4.00095C91.3768 2.90988 91.061 1.97921 90.2959 1.20771C89.5307 0.436212 88.4929 0.00278802 87.4107 0.00278802C86.3286 0.00278802 85.2908 0.436212 84.5256 1.20771C83.7605 1.97921 83.3306 2.90988 83.3306 4.00095V40.0009C83.3288 40.5417 83.4331 40.9637 83.6376 41.4636C83.842 41.9636 84.1425 42.4178 84.5217 42.8001C84.901 43.1825 85.3515 43.4854 85.8473 43.6915C86.3432 43.8976 86.8745 44.0028 87.4109 44.0009Z"
        fill="#E8455B" />
    <path
        d="M112.314 42.5956C112.693 43.0351 113.172 43.3894 113.716 43.6326C114.259 43.8757 114.854 44.0016 115.456 44.0009C116.406 44.0051 117.326 43.6893 118.049 43.1109C118.464 42.7926 118.808 42.4002 119.06 41.9563C119.313 41.5124 119.469 41.0259 119.52 40.5249C119.571 40.0239 119.516 39.5184 119.357 39.0376C119.199 38.5568 118.941 38.1103 118.598 37.7239L104.093 21.0009L98.4172 26.8854L112.314 42.5956Z"
        fill="#E8455B" />
    <path
        d="M129.703 44H153.628C154.723 44 155.773 43.5671 156.548 42.7964C157.323 42.0258 157.758 40.9806 157.758 39.8907C157.758 38.8009 157.323 37.7556 156.548 36.985C155.773 36.2144 154.723 35.7814 153.628 35.7814H133.833V26.1089H150.152C151.248 26.1089 152.298 25.676 153.073 24.9054C153.847 24.1347 154.282 23.0895 154.282 21.9996C154.282 20.9098 153.847 19.8646 153.073 19.0939C152.298 18.3233 151.248 17.8904 150.152 17.8904H133.833V8.21858H153.628C154.723 8.21858 155.773 7.78564 156.548 7.015C157.323 6.24436 157.758 5.19914 157.758 4.10929C157.758 3.01944 157.323 1.97422 156.548 1.20358C155.773 0.432942 154.723 0 153.628 0H129.703C128.609 0.00484986 127.562 0.43933 126.788 1.20889C126.015 1.97846 125.578 3.02083 125.573 4.10917V39.8399C125.567 40.9362 125.999 41.99 126.773 42.77C127.548 43.5499 128.601 43.9923 129.703 44Z"
        fill="#E8455B" />
    <path
        d="M191.644 27.7443C194.651 26.3151 197.078 23.9174 198.53 20.9435C199.982 17.9696 200.373 14.5956 199.638 11.3734C198.902 8.15112 197.085 5.27143 194.483 3.20539C191.881 1.13935 188.648 0.0092617 185.314 0H167.945C166.845 0.00491686 165.792 0.439923 165.014 1.21037C164.236 1.98081 163.797 3.02434 163.792 4.1139V39.8858C163.792 40.9769 164.23 42.0233 165.009 42.7948C165.787 43.5664 166.844 43.9998 167.945 43.9998C169.046 43.9998 170.103 43.5664 170.881 42.7948C171.66 42.0233 172.098 40.9769 172.098 39.8858V29.1492H182.226L192.557 42.3944C192.942 42.8969 193.44 43.3036 194.012 43.5823C194.583 43.861 195.212 44.004 195.849 43.9999C196.764 43.9933 197.652 43.6941 198.381 43.1469C199.248 42.4776 199.814 41.4966 199.957 40.4166C200.099 39.3365 199.806 38.2445 199.141 37.3772L191.644 27.7443ZM172.096 20.9221V8.22804H185.314C187.006 8.22804 188.629 8.89406 189.826 10.0796C191.023 11.2651 191.695 12.873 191.695 14.5496C191.695 16.2262 191.023 17.8341 189.826 19.0196C188.629 20.2051 187.006 20.8711 185.314 20.8711H172.095L172.096 20.9221Z"
        fill="#E8455B" />
    <path
        d="M77.2956 18.4028C77.2957 13.5093 75.3423 8.81594 71.8646 5.35334C68.3789 1.91521 63.6651 -0.0096976 58.7551 3.67412e-05C53.8452 0.00977108 49.1392 1.95335 45.6673 5.40527C42.1954 8.8572 40.2406 13.5362 40.2308 18.418C40.2209 23.2998 42.1569 27.9865 45.6148 31.4523L57.9352 43.7019C58.1394 43.8932 58.4089 44.0003 58.6895 44.0018C58.8291 44.0057 58.9681 43.9811 59.0978 43.9295C59.2276 43.8779 59.3453 43.8005 59.4438 43.7019L71.7641 31.4523C73.5185 29.7566 74.9123 27.7277 75.8625 25.486C76.8128 23.2442 77.3001 20.8355 77.2956 18.4028ZM67.1377 26.6526C65.1941 28.5919 62.6342 29.8009 59.8944 30.0734C57.1546 30.346 54.4045 29.6653 52.113 28.1473C49.8215 26.6294 48.1305 24.3682 47.3283 21.7492C46.5261 19.1303 46.6623 16.3158 47.7138 13.7856C48.7653 11.2553 50.6669 9.16603 53.0944 7.87389C55.5219 6.58175 58.325 6.16677 61.0259 6.69969C63.7267 7.23262 66.158 8.68045 67.9052 10.7964C69.6525 12.9123 70.6075 15.5652 70.6075 18.3029C70.6203 19.8546 70.3199 21.3932 69.7239 22.8273C69.1278 24.2615 68.2484 25.5625 67.1377 26.6526Z"
        fill="#E8455B" />
    <path
        d="M65.2618 14.3626L67.4518 12.9625C66.7059 11.7969 65.733 10.7915 64.5903 10.0056L63.1218 12.182C62.265 11.6172 61.3136 11.2093 60.3124 10.9775L60.8083 8.42593L60.1382 8.33517C59.4805 8.23621 58.8137 8.21095 58.1504 8.25984C57.6668 8.29474 57.1858 8.35911 56.7101 8.45259L57.2391 10.9967C56.2115 11.1882 55.239 11.6027 54.391 12.2106L52.8808 10.0668C52.1167 10.5934 51.4249 11.2167 50.8228 11.921C50.5312 12.2693 50.2875 12.6241 50.0441 12.979L52.2396 14.3914C51.6784 15.259 51.2968 16.2291 51.1173 17.2451L48.5445 16.7997L48.4989 17.1322C48.3278 18.3839 48.3846 19.656 48.6668 20.8877L51.2387 20.2665C51.389 20.9496 51.6444 21.6056 51.996 22.2112L49.6812 23.449C50.3583 24.6448 51.2552 25.7035 52.3251 26.5704L53.972 24.5149C54.7806 25.1558 55.7108 25.6281 56.7071 25.9036L56.0205 28.4293C56.4573 28.5466 56.9004 28.6389 57.3478 28.7059C58.2709 28.8279 59.2065 28.8241 60.1285 28.6948L59.7496 26.1227C60.7775 25.9714 61.7674 25.6286 62.6673 25.1121L64.0141 27.3791C65.1959 26.6645 66.2327 25.7362 67.0709 24.6421L64.9428 23.0935C65.5672 22.2665 66.0123 21.3199 66.2502 20.3132L68.8034 20.9015C68.8887 20.5754 68.9505 20.2436 68.9883 19.9087C69.0389 19.6077 69.0643 19.303 69.0643 18.9979C69.1132 18.2617 69.067 17.5223 68.9268 16.7978L66.3334 17.2222C66.1825 16.2046 65.8174 15.2302 65.2618 14.3626ZM57.8171 25.2796C56.4727 25.0975 55.2128 24.5231 54.1967 23.629C53.1806 22.735 52.454 21.5615 52.1087 20.2568C51.7635 18.9522 51.8151 17.5751 52.257 16.2996C52.6989 15.0241 53.5113 13.9076 54.5914 13.0911C55.6716 12.2747 56.971 11.7951 58.3253 11.7129C59.6796 11.6308 61.028 11.9497 62.2 12.6295C63.372 13.3093 64.3149 14.3193 64.9095 15.5319C65.5041 16.7445 65.7238 18.1052 65.5406 19.4419C65.2884 21.2312 64.3351 22.8489 62.8885 23.9424C61.4418 25.0359 59.6191 25.5166 57.8175 25.2796L57.8171 25.2796Z"
        fill="#E8455B" />
</svg>