<svg width="34" height="34" viewBox="0 0 34 34" fill="none" xmlns="http://www.w3.org/2000/svg">
    <g clip-path="url(#clip0_292_1828)">
        <mask id="mask0_292_1828" style="mask-type:luminance" maskUnits="userSpaceOnUse" x="0" y="0" width="34"
            height="34">
            <path d="M34 0H0V34H34V0Z" fill="white" />
        </mask>
        <g mask="url(#mask0_292_1828)">
            <path
                d="M21.3031 15.6001C21.3031 16.4502 21.0511 17.2812 20.579 17.9882C20.1069 18.6951 19.4358 19.2463 18.6505 19.572C17.8653 19.8977 17.0011 19.9833 16.1672 19.818C15.3333 19.6527 14.5671 19.244 13.9654 18.6434C13.3637 18.0429 12.9535 17.2774 12.7867 16.4438C12.6199 15.6102 12.7039 14.7459 13.0282 13.9601C13.3524 13.1742 13.9023 12.5021 14.6084 12.0286C15.3144 11.5552 16.145 11.3016 16.9951 11.3001C17.5605 11.299 18.1205 11.4095 18.6431 11.6251C19.1657 11.8407 19.6407 12.1573 20.0409 12.5567C20.441 12.9561 20.7584 13.4304 20.975 13.9527C21.1916 14.4749 21.3031 15.0347 21.3031 15.6001Z"
                fill="white" />
            <path fill-rule="evenodd" clip-rule="evenodd"
                d="M17 31.1663C21.781 31.1663 29.75 22.3802 29.75 15.4253C29.7288 12.0648 28.3737 8.85028 25.9827 6.48886C23.5916 4.12745 20.3605 2.8125 17 2.83325C13.6393 2.8125 10.4081 4.12758 8.01698 6.48921C5.62591 8.85084 4.27089 12.0656 4.25 15.4263C4.25 22.3803 12.219 31.1663 17 31.1663ZM17 19.8333C17.8406 19.8333 18.6623 19.584 19.3612 19.117C20.0601 18.65 20.6048 17.9862 20.9265 17.2097C21.2482 16.4331 21.3323 15.5785 21.1683 14.7541C21.0043 13.9297 20.5996 13.1724 20.0052 12.578C19.4108 11.9837 18.6536 11.5789 17.8291 11.4149C17.0047 11.2509 16.1502 11.3351 15.3736 11.6568C14.597 11.9784 13.9333 12.5232 13.4663 13.2221C12.9993 13.921 12.75 14.7427 12.75 15.5833C12.75 16.7104 13.1978 17.7914 13.9948 18.5885C14.7918 19.3855 15.8728 19.8333 17 19.8333Z"
                fill="#E8455B" />
        </g>
    </g>
    <defs>
        <clipPath id="clip0_292_1828">
            <rect width="34" height="34" fill="white" />
        </clipPath>
    </defs>
</svg>