<?xml version="1.0" encoding="UTF-8"?>
<svg xmlns="http://www.w3.org/2000/svg" width="24" height="24" viewBox="0 0 24 24" fill="none">
    <g clip-path="url(#clip0_166_1159)">
        <mask id="mask0_166_1159" style="mask-type:luminance" maskUnits="userSpaceOnUse" x="0" y="0" width="24"
            height="24">
            <path d="M24 0H0V24H24V0Z" fill="white"></path>
        </mask>
        <g mask="url(#mask0_166_1159)">
            <path
                d="M11.248 21.998C11.248 22.197 11.3271 22.3877 11.4677 22.5284C11.6084 22.669 11.7991 22.748 11.998 22.748C12.197 22.748 12.3877 22.669 12.5284 22.5284C12.669 22.3877 12.748 22.197 12.748 21.998H11.248ZM3.99805 6.74805H19.998V5.24805H3.99805V6.74805ZM21.248 7.99805V8.99805H22.748V7.99805H21.248ZM19.998 10.248H3.99805V11.748H19.998V10.248ZM2.74805 8.99805V7.99805H1.24805V8.99805H2.74805ZM3.99805 10.248C3.66653 10.248 3.34858 10.1164 3.11416 9.88193C2.87974 9.64751 2.74805 9.32957 2.74805 8.99805H1.24805C1.24805 9.72739 1.53778 10.4269 2.0535 10.9426C2.56923 11.4583 3.2687 11.748 3.99805 11.748V10.248ZM21.248 8.99805C21.248 9.32957 21.1164 9.64751 20.8819 9.88193C20.6475 10.1164 20.3296 10.248 19.998 10.248V11.748C20.7274 11.748 21.4269 11.4583 21.9426 10.9426C22.4583 10.4269 22.748 9.72739 22.748 8.99805H21.248ZM19.998 6.74805C20.3296 6.74805 20.6475 6.87974 20.8819 7.11416C21.1164 7.34858 21.248 7.66653 21.248 7.99805H22.748C22.748 7.2687 22.4583 6.56923 21.9426 6.0535C21.4269 5.53778 20.7274 5.24805 19.998 5.24805V6.74805ZM3.99805 5.24805C3.2687 5.24805 2.56923 5.53778 2.0535 6.0535C1.53778 6.56923 1.24805 7.2687 1.24805 7.99805H2.74805C2.74805 7.66653 2.87974 7.34858 3.11416 7.11416C3.34858 6.87974 3.66653 6.74805 3.99805 6.74805V5.24805ZM15.998 5.24805H11.998V6.74805H15.998V5.24805ZM17.248 3.99805C17.248 4.32957 17.1164 4.64751 16.8819 4.88193C16.6475 5.11635 16.3296 5.24805 15.998 5.24805V6.74805C16.7274 6.74805 17.4269 6.45832 17.9426 5.94259C18.4583 5.42687 18.748 4.72739 18.748 3.99805H17.248ZM15.998 2.74805C16.3296 2.74805 16.6475 2.87974 16.8819 3.11416C17.1164 3.34858 17.248 3.66653 17.248 3.99805H18.748C18.748 3.2687 18.4583 2.56923 17.9426 2.0535C17.4269 1.53778 16.7274 1.24805 15.998 1.24805V2.74805ZM15.998 1.24805C14.7383 1.24805 13.5301 1.74849 12.6393 2.63929C11.7485 3.53009 11.248 4.73827 11.248 5.99805H12.748C12.748 5.13609 13.0905 4.30944 13.7 3.69995C14.3094 3.09046 15.1361 2.74805 15.998 2.74805V1.24805ZM7.99805 6.74805H11.998V5.24805H7.99805V6.74805ZM5.24805 3.99805C5.24805 4.72739 5.53778 5.42687 6.0535 5.94259C6.56923 6.45832 7.2687 6.74805 7.99805 6.74805V5.24805C7.66653 5.24805 7.34858 5.11635 7.11416 4.88193C6.87974 4.64751 6.74805 4.32957 6.74805 3.99805H5.24805ZM7.99805 1.24805C7.2687 1.24805 6.56923 1.53778 6.0535 2.0535C5.53778 2.56923 5.24805 3.2687 5.24805 3.99805H6.74805C6.74805 3.66653 6.87974 3.34858 7.11416 3.11416C7.34858 2.87974 7.66653 2.74805 7.99805 2.74805V1.24805ZM7.99805 2.74805C8.86 2.74805 9.68665 3.09046 10.2961 3.69995C10.9056 4.30944 11.248 5.13609 11.248 5.99805H12.748C12.748 4.73827 12.2476 3.53009 11.3568 2.63929C10.466 1.74849 9.25783 1.24805 7.99805 1.24805V2.74805ZM19.248 10.998V19.998H20.748V10.998H19.248ZM17.998 21.248H5.99805V22.748H17.998V21.248ZM4.74805 19.998V10.998H3.24805V19.998H4.74805ZM5.99805 21.248C5.66653 21.248 5.34858 21.1164 5.11416 20.8819C4.87974 20.6475 4.74805 20.3296 4.74805 19.998H3.24805C3.24805 20.7274 3.53778 21.4269 4.0535 21.9426C4.56923 22.4583 5.2687 22.748 5.99805 22.748V21.248ZM19.248 19.998C19.248 20.3296 19.1164 20.6475 18.8819 20.8819C18.6475 21.1164 18.3296 21.248 17.998 21.248V22.748C18.7274 22.748 19.4269 22.4583 19.9426 21.9426C20.4583 21.4269 20.748 20.7274 20.748 19.998H19.248ZM11.248 5.99805V21.998H12.748V5.99805H11.248Z"
                fill="#333333"></path>
        </g>
    </g>
    <defs>
        <clipPath id="clip0_166_1159">
            <rect width="24" height="24" fill="white"></rect>
        </clipPath>
    </defs>
</svg>