<svg width="24" height="24" viewBox="0 0 24 24" fill="none" xmlns="http://www.w3.org/2000/svg">
<g clip-path="url(#clip0_166_1142)">
<mask id="mask0_166_1142" style="mask-type:luminance" maskUnits="userSpaceOnUse" x="0" y="0" width="24" height="24">
<path d="M24 0H0V24H24V0Z" fill="white"/>
</mask>
<g mask="url(#mask0_166_1142)">
<mask id="mask1_166_1142" style="mask-type:luminance" maskUnits="userSpaceOnUse" x="0" y="0" width="24" height="24">
<path d="M24 0H0V24H24V0Z" fill="white"/>
</mask>
<g mask="url(#mask1_166_1142)">
<path d="M9.91997 20.83L3.03497 13.43C1.88621 12.1653 1.24976 10.5181 1.24976 8.80954C1.24976 7.101 1.88621 5.45373 3.03497 4.18904C3.58809 3.57787 4.26313 3.08939 5.01658 2.75508C5.77004 2.42077 6.58518 2.24805 7.40947 2.24805C8.23376 2.24805 9.04891 2.42077 9.80236 2.75508C10.5558 3.08939 11.2309 3.57787 11.784 4.18904L12 4.42104L12.216 4.18904C12.7691 3.57804 13.4441 3.0897 14.1974 2.75548C14.9508 2.42127 15.7658 2.2486 16.59 2.2486C17.4141 2.2486 18.2292 2.42127 18.9825 2.75548C19.7359 3.0897 20.4109 3.57804 20.964 4.18904C22.1127 5.45373 22.7492 7.101 22.7492 8.80954C22.7492 10.5181 22.1127 12.1653 20.964 13.43L14.079 20.83C13.8155 21.1197 13.4944 21.3511 13.1364 21.5095C12.7783 21.6678 12.391 21.7496 11.9995 21.7496C11.6079 21.7496 11.2207 21.6678 10.8626 21.5095C10.5045 21.3511 10.1834 21.1197 9.91997 20.83Z" fill="#E8455B"/>
</g>
</g>
</g>
<defs>
<clipPath id="clip0_166_1142">
<rect width="24" height="24" fill="white"/>
</clipPath>
</defs>
</svg>
