<svg width="24" height="24" viewBox="0 0 24 24" fill="none" xmlns="http://www.w3.org/2000/svg">
<g clip-path="url(#clip0_166_1152)">
<mask id="mask0_166_1152" style="mask-type:luminance" maskUnits="userSpaceOnUse" x="0" y="0" width="24" height="24">
<path d="M24 0H0V24H24V0Z" fill="white"/>
</mask>
<g mask="url(#mask0_166_1152)">
<path d="M7.41586 16.5373L6.76586 16.9123C6.84607 17.0512 6.9687 17.1607 7.11575 17.2248C7.26279 17.2888 7.42651 17.3041 7.58286 17.2683L7.41586 16.5373ZM4.41586 11.3373L3.86586 10.8313C3.75658 10.9488 3.6879 11.0983 3.6699 11.2578C3.6519 11.4173 3.68553 11.5783 3.76586 11.7173L4.41586 11.3373ZM14.1269 14.9303C14.0274 14.7579 13.8635 14.632 13.6713 14.5805C13.4791 14.5289 13.2742 14.5558 13.1019 14.6553C12.9295 14.7547 12.8036 14.9186 12.7521 15.1108C12.7005 15.303 12.7274 15.5079 12.8269 15.6803L14.1269 14.9303ZM11.0269 15.5533C10.9274 15.3809 10.7635 15.255 10.5713 15.2035C10.3791 15.1519 10.1742 15.1788 10.0019 15.2783C9.82947 15.3777 9.70364 15.5416 9.65207 15.7338C9.6005 15.926 9.6274 16.1309 9.72686 16.3033L11.0269 15.5533ZM18.0519 4.01325C18.0264 4.1084 18.0199 4.20762 18.0328 4.30527C18.0456 4.40292 18.0776 4.49708 18.1269 4.58237C18.2264 4.75463 18.3902 4.8803 18.5824 4.93175C18.7745 4.9832 18.9792 4.95622 19.1515 4.85673C19.2368 4.80747 19.3115 4.74189 19.3715 4.66374C19.4314 4.58559 19.4754 4.4964 19.5009 4.40125L18.0519 4.01325ZM19.8669 3.03525C19.9183 2.84284 19.8912 2.63787 19.7915 2.46543C19.6919 2.29299 19.5278 2.1672 19.3354 2.11575C19.1429 2.0643 18.938 2.09139 18.7655 2.19107C18.5931 2.29074 18.4673 2.45484 18.4159 2.64725L19.8669 3.03525ZM20.9669 6.94725C20.7747 6.8958 20.57 6.92279 20.3977 7.02228C20.2255 7.12176 20.0998 7.2856 20.0484 7.47775C19.9969 7.6699 20.0239 7.87462 20.1234 8.04687C20.2229 8.21913 20.3867 8.3448 20.5789 8.39625L20.9669 6.94725ZM21.9449 8.76225C22.04 8.78773 22.1392 8.79422 22.2369 8.78134C22.3345 8.76847 22.4287 8.73649 22.514 8.68723C22.5993 8.63797 22.674 8.57239 22.734 8.49424C22.7939 8.41609 22.8379 8.3269 22.8634 8.23175C22.8888 8.13661 22.8953 8.03738 22.8824 7.93973C22.8696 7.84208 22.8376 7.74792 22.7883 7.66263C22.7391 7.57734 22.6735 7.50259 22.5953 7.44264C22.5172 7.3827 22.428 7.33873 22.3329 7.31325L21.9449 8.76225ZM14.3789 4.09725L18.6699 11.5313L19.9699 10.7813L15.6769 3.34725L14.3789 4.09725ZM17.8669 13.3723L7.24786 15.8063L7.58286 17.2723L18.2019 14.8403L17.8669 13.3723ZM8.06686 16.1603L5.06686 10.9603L3.76686 11.7103L6.76686 16.9103L8.06686 16.1603ZM4.96486 11.8523L12.3799 3.87225L11.2809 2.85025L3.86586 10.8313L4.96486 11.8523ZM18.6699 11.5323C18.7676 11.7014 18.8243 11.8911 18.8355 12.0861C18.8466 12.2812 18.8119 12.4761 18.7341 12.6553C18.6564 12.8345 18.5377 12.9929 18.3876 13.118C18.2375 13.243 18.0602 13.3311 17.8699 13.3753L18.2049 14.8373C18.6244 14.7412 19.0156 14.5481 19.3469 14.2734C19.6782 13.9986 19.9404 13.6499 20.1124 13.2554C20.2843 12.8608 20.3613 12.4314 20.3371 12.0017C20.3129 11.572 20.1881 11.154 19.9729 10.7813L18.6699 11.5323ZM15.6769 3.34725C15.4621 2.97365 15.1625 2.65575 14.8023 2.41918C14.4421 2.18262 14.0314 2.03402 13.6032 1.98536C13.175 1.9367 12.7414 1.98935 12.3373 2.13907C11.9332 2.28878 11.57 2.53136 11.2769 2.84725L12.3769 3.86825C12.51 3.72461 12.675 3.61427 12.8587 3.54611C13.0423 3.47796 13.2393 3.45392 13.434 3.47591C13.6286 3.4979 13.8153 3.56532 13.9791 3.67272C14.1429 3.78013 14.2791 3.92452 14.3769 4.09425L15.6769 3.34725ZM4.01586 12.1493L6.51586 16.4793L7.81586 15.7293L5.31586 11.3993L4.01586 12.1493ZM5.21586 17.2293L2.71586 12.8993L1.41586 13.6493L3.91586 17.9793L5.21586 17.2293ZM2.71586 12.8993C2.66624 12.8138 2.634 12.7194 2.62097 12.6215C2.60794 12.5236 2.61439 12.424 2.63994 12.3286C2.66549 12.2332 2.70965 12.1437 2.76987 12.0654C2.83009 11.9871 2.90519 11.9215 2.99086 11.8723L2.24086 10.5723C1.98439 10.7199 1.75956 10.9166 1.57925 11.1513C1.39893 11.3859 1.26667 11.6538 1.19004 11.9396C1.11341 12.2254 1.09391 12.5236 1.13266 12.8169C1.1714 13.1103 1.26764 13.3931 1.41586 13.6493L2.71586 12.8993ZM6.24086 17.4993C6.0691 17.5992 5.86468 17.627 5.67249 17.5763C5.4803 17.5257 5.31607 17.4009 5.21586 17.2293L3.91586 17.9793C4.06356 18.2352 4.26024 18.4596 4.49467 18.6396C4.72911 18.8195 4.9967 18.9515 5.28216 19.0281C5.56762 19.1046 5.86536 19.1241 6.15837 19.0855C6.45138 19.047 6.73392 18.951 6.98986 18.8033L6.24086 17.4993ZM6.51586 16.4793C6.56516 16.5646 6.59715 16.6588 6.61001 16.7565C6.62287 16.8543 6.61635 16.9536 6.59081 17.0488C6.56527 17.1439 6.52121 17.2332 6.46117 17.3113C6.40112 17.3895 6.32626 17.455 6.24086 17.5043L6.99086 18.8043C7.24706 18.6566 7.47165 18.46 7.65179 18.2255C7.83193 17.991 7.96409 17.7233 8.04071 17.4377C8.11733 17.1522 8.13691 16.8543 8.09833 16.5611C8.05975 16.268 7.96376 15.9853 7.81586 15.7293L6.51586 16.4793ZM5.31586 11.3993C5.1684 11.1429 4.97186 10.9181 4.73746 10.7378C4.50306 10.5574 4.23541 10.4251 3.94981 10.3483C3.66421 10.2714 3.36627 10.2517 3.07303 10.2901C2.77979 10.3286 2.49701 10.4244 2.24086 10.5723L2.99086 11.8723C3.0762 11.823 3.17043 11.791 3.26815 11.7781C3.36586 11.7652 3.46516 11.7718 3.56036 11.7973C3.65555 11.8228 3.74478 11.8669 3.82294 11.9269C3.90109 11.987 3.96665 12.0619 4.01586 12.1473L5.31586 11.3993ZM12.8289 15.6803L14.9759 19.3993L16.2759 18.6493L14.1289 14.9303L12.8289 15.6803ZM13.6759 20.1493L11.0229 15.5493L9.72286 16.2993L12.3769 20.8993L13.6759 20.1493ZM14.7009 20.4233C14.5287 20.5226 14.3242 20.5495 14.1322 20.4981C13.9402 20.4468 13.7754 20.3213 13.6759 20.1493L12.3769 20.8993C12.6753 21.4158 13.1667 21.7927 13.743 21.947C14.3192 22.1013 14.9332 22.0205 15.4499 21.7223L14.7009 20.4233ZM14.9759 19.3993C15.0752 19.5714 15.1011 19.7759 15.0498 19.968C14.9984 20.16 14.8729 20.3237 14.7009 20.4233L15.4509 21.7233C15.9676 21.425 16.3447 20.9337 16.4992 20.3574C16.6537 19.7811 16.573 19.167 16.2749 18.6503L14.9759 19.3993ZM19.4959 4.39925L19.8619 3.03325L18.4159 2.64725L18.0499 4.01325L19.4959 4.39925ZM20.5769 8.39325L21.9429 8.75925L22.3309 7.31025L20.9669 6.94725L20.5769 8.39325Z" fill="#333333"/>
</g>
</g>
<defs>
<clipPath id="clip0_166_1152">
<rect width="24" height="24" fill="white"/>
</clipPath>
</defs>
</svg>
