<?xml version="1.0" encoding="UTF-8"?>
<svg xmlns="http://www.w3.org/2000/svg" width="24" height="24" viewBox="0 0 24 24" fill="none">
    <g clip-path="url(#clip0_166_1175)">
        <mask id="mask0_166_1175" style="mask-type:luminance" maskUnits="userSpaceOnUse" x="0" y="0" width="24"
            height="24">
            <path d="M24 0H0V24H24V0Z" fill="white"></path>
        </mask>
        <g mask="url(#mask0_166_1175)">
            <path
                d="M13.998 21.75C14.197 21.75 14.3877 21.671 14.5284 21.5303C14.669 21.3897 14.748 21.1989 14.748 21C14.748 20.8011 14.669 20.6103 14.5284 20.4697C14.3877 20.329 14.197 20.25 13.998 20.25V21.75ZM21.248 14C21.248 14.1989 21.3271 14.3897 21.4677 14.5303C21.6084 14.671 21.7991 14.75 21.998 14.75C22.197 14.75 22.3877 14.671 22.5284 14.5303C22.669 14.3897 22.748 14.1989 22.748 14H21.248ZM3.49805 21L2.89805 21.45C2.96791 21.5431 3.0585 21.6187 3.16264 21.6708C3.26678 21.7229 3.38161 21.75 3.49805 21.75C3.61448 21.75 3.72932 21.7229 3.83346 21.6708C3.9376 21.6187 4.02819 21.5431 4.09805 21.45L3.49805 21ZM1.99805 6.25C1.79913 6.25 1.60837 6.32902 1.46772 6.46967C1.32706 6.61032 1.24805 6.80109 1.24805 7C1.24805 7.19891 1.32706 7.38968 1.46772 7.53033C1.60837 7.67098 1.79913 7.75 1.99805 7.75V6.25ZM4.99805 7.75C5.19696 7.75 5.38772 7.67098 5.52838 7.53033C5.66903 7.38968 5.74805 7.19891 5.74805 7C5.74805 6.80109 5.66903 6.61032 5.52838 6.46967C5.38772 6.32902 5.19696 6.25 4.99805 6.25V7.75ZM11.998 6.25C11.7991 6.25 11.6084 6.32902 11.4677 6.46967C11.3271 6.61032 11.248 6.80109 11.248 7C11.248 7.19891 11.3271 7.38968 11.4677 7.53033C11.6084 7.67098 11.7991 7.75 11.998 7.75V6.25ZM17.998 7.75C18.197 7.75 18.3877 7.67098 18.5284 7.53033C18.669 7.38968 18.748 7.19891 18.748 7C18.748 6.80109 18.669 6.61032 18.5284 6.46967C18.3877 6.32902 18.197 6.25 17.998 6.25V7.75ZM11.998 10.25C11.7991 10.25 11.6084 10.329 11.4677 10.4697C11.3271 10.6103 11.248 10.8011 11.248 11C11.248 11.1989 11.3271 11.3897 11.4677 11.5303C11.6084 11.671 11.7991 11.75 11.998 11.75V10.25ZM17.998 11.75C18.197 11.75 18.3877 11.671 18.5284 11.5303C18.669 11.3897 18.748 11.1989 18.748 11C18.748 10.8011 18.669 10.6103 18.5284 10.4697C18.3877 10.329 18.197 10.25 17.998 10.25V11.75ZM11.998 14.25C11.7991 14.25 11.6084 14.329 11.4677 14.4697C11.3271 14.6103 11.248 14.8011 11.248 15C11.248 15.1989 11.3271 15.3897 11.4677 15.5303C11.6084 15.671 11.7991 15.75 11.998 15.75V14.25ZM14.998 15.75C15.197 15.75 15.3877 15.671 15.5284 15.5303C15.669 15.3897 15.748 15.1989 15.748 15C15.748 14.8011 15.669 14.6103 15.5284 14.4697C15.3877 14.329 15.197 14.25 14.998 14.25V15.75ZM16.467 18.414C16.3904 18.3503 16.3018 18.3025 16.2065 18.2734C16.1112 18.2443 16.011 18.2345 15.9118 18.2446C15.8127 18.2546 15.7165 18.2844 15.6289 18.332C15.5414 18.3797 15.4642 18.4443 15.402 18.5221C15.3397 18.6 15.2936 18.6894 15.2663 18.7853C15.239 18.8811 15.231 18.9815 15.243 19.0804C15.2549 19.1794 15.2864 19.275 15.3357 19.3616C15.385 19.4483 15.4511 19.5242 15.53 19.585L16.467 18.414ZM22.559 17.494C22.6239 17.4199 22.6736 17.3337 22.7051 17.2404C22.7367 17.1471 22.7496 17.0484 22.743 16.9501C22.7365 16.8519 22.7106 16.7558 22.667 16.6675C22.6233 16.5792 22.5627 16.5004 22.4885 16.4355C22.4144 16.3706 22.3282 16.321 22.2349 16.2894C22.1416 16.2579 22.043 16.245 21.9447 16.2515C21.8464 16.2581 21.7504 16.2839 21.6621 16.3276C21.5738 16.3712 21.4949 16.4319 21.43 16.506L22.559 17.494ZM11.998 3.75H17.998V2.25H11.998V3.75ZM8.74805 17V7H7.24805V17H8.74805ZM13.998 20.25H11.998V21.75H13.998V20.25ZM21.248 7V14H22.748V7H21.248ZM7.24805 17C7.24805 18.2598 7.74849 19.468 8.63929 20.3588C9.53009 21.2496 10.7383 21.75 11.998 21.75V20.25C11.1361 20.25 10.3094 19.9076 9.69995 19.2981C9.09046 18.6886 8.74805 17.862 8.74805 17H7.24805ZM17.998 3.75C18.86 3.75 19.6867 4.09241 20.2961 4.7019C20.9056 5.3114 21.248 6.13805 21.248 7H22.748C22.748 5.74022 22.2476 4.53204 21.3568 3.64124C20.466 2.75044 19.2578 2.25 17.998 2.25V3.75ZM11.998 2.25C10.7383 2.25 9.53009 2.75044 8.63929 3.64124C7.74849 4.53204 7.24805 5.74022 7.24805 7H8.74805C8.74805 6.13805 9.09046 5.3114 9.69995 4.7019C10.3094 4.09241 11.1361 3.75 11.998 3.75V2.25ZM4.24805 4.5V17.667H5.74805V4.5H4.24805ZM2.74805 17.667V4.5H1.24805V17.667H2.74805ZM3.59805 19.617L2.89805 20.55L4.09805 21.45L4.79805 20.517L3.59805 19.617ZM4.09805 20.55L3.39805 19.617L2.19805 20.517L2.89805 21.45L4.09805 20.55ZM1.24805 17.667C1.24805 18.6948 1.58139 19.6948 2.19805 20.517L3.39805 19.617C2.97613 19.0544 2.74805 18.3702 2.74805 17.667H1.24805ZM4.24805 17.667C4.24805 18.3702 4.01997 19.0544 3.59805 19.617L4.79805 20.517C5.4147 19.6948 5.74805 18.6948 5.74805 17.667H4.24805ZM3.49805 3.75C3.69696 3.75 3.88772 3.82902 4.02838 3.96967C4.16903 4.11032 4.24805 4.30109 4.24805 4.5H5.74805C5.74805 3.90326 5.51099 3.33097 5.08904 2.90901C4.66708 2.48705 4.09478 2.25 3.49805 2.25V3.75ZM3.49805 2.25C2.90131 2.25 2.32901 2.48705 1.90706 2.90901C1.4851 3.33097 1.24805 3.90326 1.24805 4.5H2.74805C2.74805 4.30109 2.82706 4.11032 2.96772 3.96967C3.10837 3.82902 3.29913 3.75 3.49805 3.75V2.25ZM1.99805 7.75H4.99805V6.25H1.99805V7.75ZM11.998 7.75H17.998V6.25H11.998V7.75ZM11.998 11.75H17.998V10.25H11.998V11.75ZM11.998 15.75H14.998V14.25H11.998V15.75ZM15.53 19.586L17.283 20.986L18.22 19.815L16.467 18.415L15.53 19.586ZM19.693 20.774L22.563 17.494L21.434 16.506L18.564 19.786L19.693 20.774ZM17.283 20.988C17.635 21.2695 18.082 21.4044 18.531 21.3646C18.9799 21.3247 19.3962 21.1132 19.693 20.774L18.564 19.786C18.5217 19.8344 18.4623 19.8647 18.3983 19.8705C18.3342 19.8762 18.2704 19.8571 18.22 19.817L17.283 20.988Z"
                fill="#333333"></path>
        </g>
    </g>
    <defs>
        <clipPath id="clip0_166_1175">
            <rect width="24" height="24" fill="white"></rect>
        </clipPath>
    </defs>
</svg>