<svg width="16" height="16" viewBox="0 0 16 16" fill="none" xmlns="http://www.w3.org/2000/svg">
<g clip-path="url(#clip0_353_2003)">
<mask id="mask0_353_2003" style="mask-type:luminance" maskUnits="userSpaceOnUse" x="0" y="0" width="16" height="16">
<path d="M16 0H0V16H16V0Z" fill="white"/>
</mask>
<g mask="url(#mask0_353_2003)">
<path d="M12.6872 11.9798C12.593 11.8875 12.4663 11.8362 12.3345 11.8368C12.2027 11.8375 12.0765 11.8902 11.9833 11.9833C11.8902 12.0765 11.8375 12.2027 11.8368 12.3345C11.8362 12.4663 11.8875 12.593 11.9798 12.6872L12.6872 11.9798ZM14.3133 15.0198C14.3595 15.067 14.4147 15.1046 14.4756 15.1303C14.5365 15.1561 14.6019 15.1695 14.668 15.1699C14.7341 15.1702 14.7996 15.1574 14.8608 15.1323C14.9219 15.1071 14.9775 15.0701 15.0242 15.0234C15.071 14.9766 15.108 14.9211 15.1331 14.8599C15.1583 14.7988 15.1711 14.7333 15.1707 14.6671C15.1704 14.601 15.1569 14.5356 15.1312 14.4748C15.1054 14.4139 15.0678 14.3587 15.0206 14.3124L14.3133 15.0198ZM14.5002 7.66652C14.5 5.85441 13.78 4.11658 12.4987 2.83522C11.2173 1.55386 9.47948 0.833902 7.66736 0.833679V1.8341C9.21444 1.8341 10.6982 2.44867 11.7921 3.54262C12.8861 4.63657 13.5006 6.12029 13.5006 7.66736L14.5002 7.66652ZM7.66736 0.833679C5.85496 0.833679 4.11678 1.55365 2.83522 2.83522C1.55365 4.11678 0.833679 5.85496 0.833679 7.66736H1.8341C1.8341 6.12029 2.44867 4.63657 3.54262 3.54262C4.63657 2.44867 6.12029 1.8341 7.66736 1.8341V0.833679ZM0.833679 7.66736C0.833679 9.47977 1.55365 11.2179 2.83522 12.4995C4.11678 13.7811 5.85496 14.501 7.66736 14.501V13.5006C6.90133 13.5006 6.14279 13.3497 5.43507 13.0566C4.72735 12.7634 4.08429 12.3338 3.54262 11.7921C2.44867 10.6982 1.8341 9.21444 1.8341 7.66736H0.833679ZM7.66736 14.501C9.47977 14.501 11.2179 13.7811 12.4995 12.4995C13.7811 11.2179 14.501 9.47977 14.501 7.66736H13.5006C13.5006 9.21444 12.8861 10.6982 11.7921 11.7921C10.6982 12.8861 9.21444 13.5006 7.66736 13.5006V14.501ZM11.9806 12.688L14.3141 15.0215L15.0215 14.3141L12.688 11.9806L11.9806 12.688Z" fill="#999999"/>
</g>
</g>
<defs>
<clipPath id="clip0_353_2003">
<rect width="16" height="16" fill="white"/>
</clipPath>
</defs>
</svg>
